<svg xmlns="http://www.w3.org/2000/svg" width="64" height="45" viewBox="0 0 64 45">
    <g fill="none" fill-rule="evenodd">
        <path fill="#FFF" d="M24.775 13.652h1.012l-3.922 6.775h-1.011z"/>
        <path fill="#FFF" d="M19.72 15.046l2.218 3.64v1.624l-2.219 4.133zM19.72 33.22l9.685-5.411v3.388l-9.686 5.411zM4.55 10.962l15.19-8.94v3.389L4.55 14.34z"/>
        <path fill="#FFF" d="M4.551 11.124h2.528v17.191H4.551z"/>
        <path fill="#FFF" d="M4.55 24.775l14.782 8.693V36.9L4.551 28.208z"/>
        <path fill="#D8D8D8" d="M19.213 33.371h1v3.539h-1z"/>
        <circle cx="10.365" cy="14.916" r="1.264" fill="#FFF"/>
        <circle cx="10.618" cy="17.191" r="1.011" fill="#FFF"/>
        <circle cx="12.64" cy="18.202" r="1.011" fill="#FFF"/>
        <circle cx="14.41" cy="17.444" r="1" fill="#FFF"/>
        <circle cx="10.618" cy="19.213" r="1.011" fill="#FFF"/>
        <circle cx="12.388" cy="19.972" r="1" fill="#FFF"/>
        <circle cx="11.882" cy="20.983" r="1" fill="#FFF"/>
        <circle cx="12.893" cy="21.994" r="1" fill="#FFF"/>
        <circle cx="13.399" cy="20.478" r="1" fill="#FFF"/>
        <circle cx="13.904" cy="18.961" r="1" fill="#FFF"/>
        <circle cx="12.893" cy="15.927" r="1.264" fill="#FFF"/>
        <circle cx="12.64" cy="13.146" r="1.517" fill="#FFF"/>
        <circle cx="14.663" cy="14.663" r="1.517" fill="#FFF"/>
        <path fill="#FFF" d="M41.966 13.146h2.528v1h-2.528zM19.213 0h1.011v45h-1.011zM28.82 0h1.011v45H28.82zM38.933 0h1.011v45h-1.011zM49.045 0h1.011v45h-1.011zM58.652 0h1.011v45h-1.011zM29.831 13.146h2.022v10.112h-2.022zM39.944 13.146h2.022v10.112h-2.022z"/>
        <path fill="#FFF" d="M50.056 13.146h2.022v10.112h-2.022z"/>
        <path stroke="#FFF" d="M59.364 13.577c1.133-.357 2.2.039 3.2 1.186"/>
        <path fill="#FFF" d="M59.467 14.894c1.873 2.086 2.976 3.439 3.31 4.059.5.929 1.451 4.294-3.17 4.799.011-3.714-.036-6.666-.14-8.858zM19.72 12.21c-3.025-2.028-6.35-2.214-9.974-.557C4.31 14.14 2.968 13.936.24 12.826c1.346.896 2.443 1.724 4.924 1.557 2.482-.167 3.718-1.915 6.504-2.502 2.786-.588 5.428-.694 8.053 1.344a24.32 24.32 0 0 0 0-1.015z"/>
        <path stroke="#FFF" d="M18.527 12.083c-2.348-.315-3.96-.064-4.837.753M13.355 11.199C9.53 12.56 7.33 15.352 6.752 19.572c-.867 6.329 4.636 7.417 6.528 5.646 1.893-1.772 1.983-3.51 0-2.393-1.982 1.117-1.492 4.096.847 3.428 2.338-.667 2.792-2.876 1.9-2.837-.89.04-1.373 3.299.215 2.55 1.588-.748.614-2.358 3.607-2.803"/>
    </g>
</svg>
