<svg xmlns="http://www.w3.org/2000/svg" width="18" height="18" viewBox="0 0 18 18">
    <g fill="none" fill-rule="evenodd" transform="translate(1 1)">
        <circle cx="8" cy="8" r="8" fill="#F2CF9A" stroke="#F2CF9A"/>
        <path fill="#FFF" d="M8.871 3.411l-.157 7.574H7.62l-.15-7.574H8.87zm-1.565 9.871c0-.246.086-.452.26-.618a.866.866 0 0 1 .622-.25.84.84 0 0 1 .615.26c.173.173.26.376.26.608a.825.825 0 0 1-.253.598.801.801 0 0 1-.588.257c-.274 0-.495-.086-.663-.257a.825.825 0 0 1-.253-.598z"/>
    </g>
</svg>
