<svg xmlns="http://www.w3.org/2000/svg" xmlns:xlink="http://www.w3.org/1999/xlink" width="62" height="40" viewBox="0 0 62 40">
    <defs>
        <path id="a" d="M39.346 30.303v9.09l-11.071-9.09H0V0h39.346v30.303z"/>
        <path id="b" d="M62 28.944v4.683l-5.703-4.683H41.73v-15.61H62v15.61z"/>
    </defs>
    <g fill="none" fill-rule="evenodd">
        <g>
            <use fill="#FFF" xlink:href="#a"/>
            <path stroke="#82766A" d="M38.846.5H.5v29.303h27.954l10.392 8.533V.5z"/>
        </g>
        <path fill="#82766A" d="M20.188 7c1.405 0 2.55.367 3.415 1.146.865.756 1.297 1.794 1.297 3.112 0 1.081-.281 1.967-.8 2.659-.194.216-.821.8-1.859 1.708a3.35 3.35 0 0 0-.864 1.08 3.055 3.055 0 0 0-.325 1.405v.303h-2.485v-.303c0-.821.13-1.534.432-2.118.28-.584 1.124-1.491 2.529-2.745l.26-.303c.388-.475.583-.994.583-1.534 0-.714-.216-1.276-.605-1.686-.411-.411-.995-.606-1.73-.606-.95 0-1.62.281-2.031.887-.368.497-.54 1.21-.54 2.118H15c0-1.6.454-2.853 1.405-3.761C17.335 7.454 18.588 7 20.188 7zm-.39 12.472c.476 0 .887.151 1.211.454.303.303.476.692.476 1.167 0 .476-.173.886-.498 1.19-.324.302-.713.453-1.188.453-.476 0-.865-.173-1.19-.476-.323-.302-.475-.691-.475-1.167 0-.475.152-.864.476-1.167.324-.303.713-.454 1.189-.454z"/>
        <g transform="matrix(-1 0 0 1 103.73 0)">
            <use fill="#FFF" xlink:href="#b"/>
            <path stroke="#82766A" d="M61.5 13.833H42.23v14.611h14.246L61.5 32.57V13.833z"/>
        </g>
        <path fill="#82766A" d="M48.033 19H50v2h-1.967zM52 19h1.967v2H52zM56 19h1.962v1.994H56z"/>
    </g>
</svg>
