<svg xmlns="http://www.w3.org/2000/svg" width="24" height="24" viewBox="0 0 24 24">
    <path fill="#000" fill-rule="nonzero" d="M11.987 23.967C5.38 23.967.005 18.593.005 11.986S5.38.004 11.987.004c6.606 0 11.98 5.375 11.98 11.982 0 6.607-5.374 11.981-11.98 11.981zm0-22.553c-5.83 0-10.572 4.742-10.572 10.572 0 5.83 4.742 10.572 10.572 10.572 5.83 0 10.571-4.742 10.571-10.572 0-5.83-4.742-10.572-10.571-10.572zm0 17.62a1.41 1.41 0 0 1-1.41-1.41v-5.638a1.41 1.41 0 0 1 2.82 0v5.638c0 .78-.632 1.41-1.41 1.41zm0-11.277c-.37 0-.736-.152-.997-.413a1.424 1.424 0 0 1-.413-.996c0-.37.152-.736.413-.997s.627-.413.997-.413c.368 0 .735.152.996.413.26.26.413.628.413.997s-.152.735-.413.996c-.26.261-.628.413-.996.413z"/>
</svg>
