<svg xmlns="http://www.w3.org/2000/svg" width="16" height="15" viewBox="0 0 16 15">
    <path fill="#2886BC" fill-rule="nonzero" d="M15.99 7.786a.747.747 0 0 1-.736.758.72.72 0 0 1-.55-.26L8.52 1.896a.718.718 0 0 0-1.038 0l-4.377 4.52a.75.75 0 0 1 .083.338v2.998l-.002.018h.005v2.952c0 .42.33.759.738.759h1.475v-2.98c0-.413.33-.749.739-.749h3.693c.408 0 .739.336.739.75 0 .413-.33.749-.739.749H6.88v2.998c0 .406-.319.735-.716.747v.002H3.556c-1.02 0-1.847-.849-1.847-1.896V9.77h.002l-.002-.017V7.857l-.413.427a.72.72 0 0 1-.55.26.747.747 0 0 1-.735-.758c0-.215.087-.408.226-.546l-.004-.005L6.701.556c.718-.74 1.88-.74 2.598 0l6.456 6.667-.005.006c.146.138.24.336.24.557zm-6.155 5.696l.023.002v-.002h2.19c.408 0 .739-.34.739-.759V9.77h.01c-.001-.008-.003-.017-.003-.026 0-.419.328-.759.734-.759.406 0 .735.34.735.759 0 .01-.003.018-.003.026h.007v3.333c0 1.047-.826 1.896-1.846 1.896H9.858v-.002l-.024.002a.747.747 0 0 1-.734-.758c0-.42.329-.759.735-.759z"/>
</svg>
