<svg xmlns="http://www.w3.org/2000/svg" width="24" height="27" viewBox="0 0 24 27">
    <path fill="#A7D9EA" fill-rule="nonzero" d="M16.8 16.031c-1.538 0-2.277.844-4.8.844-2.523 0-3.257-.844-4.8-.844-3.975 0-7.2 3.175-7.2 7.088v1.35C0 25.866 1.152 27 2.571 27H21.43C22.849 27 24 25.866 24 24.469v-1.35c0-3.913-3.225-7.088-7.2-7.088zm4.629 8.438H2.57v-1.35c0-2.51 2.079-4.556 4.629-4.556.782 0 2.052.843 4.8.843 2.77 0 4.012-.843 4.8-.843 2.55 0 4.629 2.046 4.629 4.556v1.35zM12 15.187c4.259 0 7.714-3.4 7.714-7.593S16.26 0 12 0 4.286 3.401 4.286 7.594c0 4.192 3.455 7.593 7.714 7.593zm0-12.656c2.834 0 5.143 2.273 5.143 5.063 0 2.79-2.31 5.062-5.143 5.062-2.834 0-5.143-2.273-5.143-5.062 0-2.79 2.31-5.063 5.143-5.063z"/>
</svg>
