<svg xmlns="http://www.w3.org/2000/svg" width="20" height="23" viewBox="0 0 20 23">
    <path fill="#A7D9EA" fill-rule="nonzero" d="M14 13.656c-1.281 0-1.897.719-4 .719-2.103 0-2.714-.719-4-.719-3.313 0-6 2.705-6 6.038v1.15C0 22.034.96 23 2.143 23h15.714A2.15 2.15 0 0 0 20 20.844v-1.15c0-3.333-2.688-6.038-6-6.038zm3.857 7.188H2.143v-1.15c0-2.139 1.732-3.881 3.857-3.881.652 0 1.71.718 4 .718 2.308 0 3.344-.718 4-.718 2.125 0 3.857 1.742 3.857 3.88v1.15zM10 12.937c3.55 0 6.429-2.897 6.429-6.468C16.429 2.897 13.549 0 10 0 6.45 0 3.571 2.897 3.571 6.469c0 3.571 2.88 6.468 6.429 6.468zm0-10.78c2.362 0 4.286 1.935 4.286 4.312 0 2.376-1.924 4.312-4.286 4.312-2.362 0-4.286-1.936-4.286-4.312 0-2.377 1.924-4.313 4.286-4.313z"/>
</svg>
