<svg xmlns="http://www.w3.org/2000/svg" width="24" height="28" viewBox="0 0 24 28">
    <path fill="#A7D9EA" fill-rule="nonzero" d="M19.99 27.973H4.003a3.995 3.995 0 0 1-3.997-3.994V11.34h2.663v-2c0-5.142 4.175-9.314 9.322-9.314 5.147 0 9.322 4.172 9.322 9.314v1.994h2.669v12.64c0 2.212-1.79 4-3.992 4zM2.674 21.98a3.33 3.33 0 0 0 3.33 3.327h11.985a3.33 3.33 0 0 0 3.33-3.327v-7.981H2.674v7.981zM18.656 9.914c0-3.994-2.57-7.228-6.568-7.228A6.75 6.75 0 0 0 5.337 9.43v1.902h13.319v-1.42zm-6.329 12.733h-.667a.995.995 0 0 1-.998-.997v-3.994c0-.552.445-.997.998-.997h.667c.553 0 .998.45.998.997v3.994a.991.991 0 0 1-.998.997z"/>
</svg>
