<svg xmlns="http://www.w3.org/2000/svg" width="100" height="100" viewBox="0 0 100 100">
    <g fill="none" fill-rule="evenodd">
        <rect width="100" height="100" fill="#25B415" rx="19.231"/>
        <g fill="#FFF" fill-rule="nonzero">
            <path d="M33.39 40.056c-1.807 0-3.58-1.196-3.58-2.972 0-1.81 1.773-2.972 3.545-2.972 1.807 0 2.966 1.161 2.966 2.972.034 1.776-1.159 2.972-2.931 2.972zm16.6-5.944c1.808 0 2.967 1.161 2.967 2.972 0 1.776-1.16 2.972-2.966 2.972-1.773 0-3.58-1.196-3.58-2.972 0-1.81 1.807-2.972 3.58-2.972zm12.784 6.456c.75 0 1.5.035 2.284.137C62.978 31.105 52.752 24 41.093 24c-13.055 0-23.76 8.916-23.76 20.223 0 6.56 3.545 11.889 9.511 16.056l-2.386 7.174 8.318-4.168c2.966.58 5.352 1.196 8.318 1.196.715 0 1.465-.034 2.215-.102a17.323 17.323 0 0 1-.75-4.988c0-10.384 8.897-18.822 20.215-18.822z"/>
            <path d="M70.408 56.084c-1.128 0-2.29-1.147-2.29-2.327.033-1.18 1.162-2.36 2.29-2.36 1.76 0 2.922 1.18 2.922 2.36s-1.163 2.327-2.922 2.327zm-12.713 0c-1.129 0-2.29-1.147-2.29-2.327s1.162-2.36 2.29-2.36c1.76 0 2.888 1.18 2.888 2.36.034 1.18-1.129 2.327-2.888 2.327zm26.024 2.967c0-9.406-9.26-17.06-19.651-17.06-10.987 0-19.651 7.653-19.651 17.06 0 9.406 8.663 17.025 19.651 17.025 2.324 0 4.647-.607 6.938-1.18l6.373 3.54-1.76-5.866c4.648-3.54 8.1-8.226 8.1-13.52z"/>
        </g>
    </g>
</svg>
