<svg xmlns="http://www.w3.org/2000/svg" width="100" height="100" viewBox="0 0 100 100">
    <path fill="#07A0F8" fill-rule="nonzero" d="M99.98 83.37v.591c0 8.819-7.2 16.039-15.999 16.039H16C7.201 100 0 92.78 0 83.961V16.04C0 7.22 7.2 0 16 0h68c8.8 0 16 7.22 16 16.039v51.706l-.02 15.625zm-72.992-6.412c-15.605 0-20.202-12.231-12.41-19.037 2.605-2.21 7.201-3.413 9.806-3.61 9.193-1.007 17.794 2.604 27.993 7.614C45 71.158 35.983 76.958 26.987 76.958zm55.395-14.224c-4.005-1.4-9.39-3.413-15.407-5.602 3.59-6.215 6.392-13.435 8.404-21.05H55.593V29.06h24.186v-4.005H55.573V13.237h-9.805c-1.795 0-1.795 1.796-1.795 1.796v10.219H19.59v4.004h24.403v6.806H23.792v4.005H62.99c-1.4 5.01-3.393 9.627-5.603 13.83-12.606-4.203-26.198-7.616-34.8-5.406-5.405 1.4-8.996 3.807-11.008 6.214-9.39 11.422-2.604 28.862 17.203 28.862 11.797 0 23.2-6.609 31.998-17.44 13.198 6.412 39.2 17.243 39.2 17.243V67.942s-3.197-.394-17.598-5.208z"/>
</svg>
