<?xml version="1.0" encoding="UTF-8"?>
<svg width="38px" height="38px" viewBox="0 0 38 38" version="1.1" xmlns="http://www.w3.org/2000/svg" xmlns:xlink="http://www.w3.org/1999/xlink">
    <!-- Generator: Sketch 52.4 (67378) - http://www.bohemiancoding.com/sketch -->
    <title>饼图</title>
    <desc>Created with Sketch.</desc>
    <g id="Page-1" stroke="none" stroke-width="1" fill="none" fill-rule="evenodd">
        <g id="2.8.0走进南图-统计数字" transform="translate(-657.000000, -531.000000)">
            <g id="饼图" transform="translate(652.000000, 526.000000)">
                <rect id="Rectangle" fill="#000000" opacity="0" x="0" y="0" width="48" height="48"></rect>
                <path d="M21.91875,25.2609375 L33.76875,37.1109375 C32.2359375,38.671875 30.4453125,39.890625 28.396875,40.7578125 C26.3484375,41.625 24.1875,42.0609375 21.91875,42.0609375 C18.8953125,42.0609375 16.10625,41.315625 13.5515625,39.825 C10.996875,38.3390625 8.971875,36.31875 7.4859375,33.759375 C5.9953125,31.2046875 5.25,28.415625 5.25,25.3921875 C5.25,22.3734375 5.9953125,19.584375 7.4859375,17.025 C8.971875,14.475 10.9921875,12.45 13.5515625,10.959375 C16.1015625,9.4734375 18.890625,8.7234375 21.91875,8.7234375 L21.91875,25.2609375 Z M25.9734375,25.3875 L42.75,25.3875 C42.75,27.6609375 42.3140625,29.8171875 41.446875,31.865625 C40.5796875,33.9140625 39.365625,35.7046875 37.8,37.2375 L25.9734375,25.3875 Z" id="Shape" fill="#1069D5" fill-rule="nonzero"></path>
                <path d="M41.3671875,22.6125 L24.69375,22.6125 L24.69375,5.9390625 C27.7125,5.9390625 30.5015625,6.684375 33.0609375,8.175 C35.6109375,9.665625 37.6359375,11.6859375 39.1265625,14.240625 C40.6125,16.8 41.3671875,19.5890625 41.3671875,22.6125 Z" id="Path" fill="#FD5F72" fill-rule="nonzero"></path>
            </g>
        </g>
    </g>
</svg>