<?xml version="1.0" encoding="UTF-8"?>
<svg width="24px" height="19px" viewBox="0 0 24 19" version="1.1" xmlns="http://www.w3.org/2000/svg" xmlns:xlink="http://www.w3.org/1999/xlink">
    <!-- Generator: Sketch 52.4 (67378) - http://www.bohemiancoding.com/sketch -->
    <title>公告 (1)</title>
    <desc>Created with Sketch.</desc>
    <g id="Page-1" stroke="none" stroke-width="1" fill="none" fill-rule="evenodd">
        <g id="1.0.1首页-2屏" transform="translate(-776.000000, -288.000000)" fill="#0967D9" fill-rule="nonzero">
            <g id="公告-(1)" transform="translate(776.000000, 288.000000)">
                <path d="M23.0308725,8.41652893 L18.4053691,8.41652893 C18.1530201,8.41652893 17.9114094,8.51597796 17.7342282,8.69132231 C17.557047,8.86666667 17.4577181,9.10220386 17.4577181,9.34820937 L17.4577181,9.63870523 C17.4577181,10.1516529 17.8845638,10.5677686 18.4080537,10.5677686 L23.0308725,10.5677686 C23.5543624,10.5677686 23.9785235,10.1516529 23.9785235,9.63870523 L23.9785235,9.34820937 C23.9785235,9.10220386 23.8791946,8.86666667 23.7020134,8.69132231 C23.5248322,8.51597796 23.2832215,8.41652893 23.0308725,8.41652893 Z M12.3060403,0.442286501 C10.8671141,1.55716253 7.85771812,3.11955923 5.69395973,4.62438017 L5.69127517,4.62438017 C5.66711409,4.64008264 5.64295302,4.7238292 5.61610738,4.7369146 C5.36107383,4.87823691 5.24563758,5.26294766 3.85503356,5.26294766 L1.14362416,5.26294766 C0.445637584,5.26294766 0.0161073826,5.5822314 0.0161073826,6.29931129 L0.0161073826,12.6666667 C0.0161073826,13.3837466 0.410738255,13.7370523 1.14362416,13.7370523 L3.86577181,13.7370523 C5.24832215,13.7396694 5.36107383,14.1243802 5.61610738,14.2630854 C5.64026846,14.2761708 5.66442953,14.3599174 5.6885906,14.3756198 L5.69127517,14.3756198 C7.79060403,15.8804408 10.8187919,17.5632231 12.3060403,18.6336088 C12.7543624,18.9555096 14.2416107,19.5207989 14.2416107,17.5318182 L14.2416107,1.46294766 C14.2416107,-0.528650138 12.7409396,0.107300275 12.3060403,0.442286501 Z M16.5744966,4.83374656 C16.8214765,5.25509642 17.3073826,5.36239669 17.661745,5.06928375 L21.4604027,1.94710744 C21.8174497,1.65661157 21.9033557,1.07823691 21.6590604,0.654269972 L21.5194631,0.416115702 C21.2751678,-0.00523415978 20.7865772,-0.109917355 20.4322148,0.180578512 L16.633557,3.30275482 C16.2791946,3.59586777 16.190604,4.17162534 16.4348993,4.59559229 L16.5744966,4.83374656 Z M17.6590604,13.9254821 C17.304698,13.6349862 16.8187919,13.7422865 16.5744966,14.1610193 L16.4348993,14.3991736 C16.190604,14.8205234 16.2791946,15.3988981 16.633557,15.692011 L20.4322148,18.8168044 C20.7865772,19.1073003 21.2724832,19.0026171 21.5167785,18.5812672 L21.6563758,18.3431129 C21.9006711,17.9217631 21.8120805,17.3433884 21.4577181,17.0502755 L17.6590604,13.9254821 Z" id="Shape"></path>
            </g>
        </g>
    </g>
</svg>