<?xml version="1.0" encoding="UTF-8"?>
<svg width="24px" height="21px" viewBox="0 0 24 21" version="1.1" xmlns="http://www.w3.org/2000/svg" xmlns:xlink="http://www.w3.org/1999/xlink">
    <!-- Generator: Sketch 52.4 (67378) - http://www.bohemiancoding.com/sketch -->
    <title>视频</title>
    <desc>Created with Sketch.</desc>
    <g id="Page-1" stroke="none" stroke-width="1" fill="none" fill-rule="evenodd">
        <g id="1.0.1首页-2屏" transform="translate(-1108.000000, -663.000000)" fill="#0967D9" fill-rule="nonzero">
            <g id="视频" transform="translate(1108.000000, 663.000000)">
                <path d="M0.0124533274,18.3720803 C0.0124533274,19.8204625 1.20497653,20.995999 2.67730677,20.995999 L21.3312808,20.995999 C22.8022983,20.995999 23.9961343,19.8204894 23.9961343,18.3720803 L23.9961342,2.62837979 C23.9961342,1.17865113 22.8022983,0.00443418421 21.3312808,0.00443418421 L2.6772794,0.00443421053 C1.20494918,0.00443421053 0.0124259599,1.17865113 0.0124259599,2.62837982 L0.0124259866,18.3720803 L0.0124533274,18.3720803 Z M17.2825467,11.3518664 L9.53112486,16.1221454 C9.06077165,16.411604 8.44482245,16.26496 8.15536381,15.7946068 C8.05836902,15.636996 8.00701363,15.4555608 8.00701363,15.2704956 L8.00701363,5.72993762 C8.00701363,5.17765287 8.45472888,4.72993762 9.00701363,4.72993762 C9.19207891,4.72993762 9.37351405,4.781293 9.53112486,4.8782878 L17.2825467,9.64856676 C17.7528999,9.9380254 17.8995439,10.5539746 17.6100853,11.0243278 C17.5280455,11.1576376 17.4158565,11.2698266 17.2825467,11.3518664 Z" id="Shape"></path>
            </g>
        </g>
    </g>
</svg>