<?xml version="1.0" encoding="UTF-8"?>
<svg width="38px" height="42px" viewBox="0 0 38 42" version="1.1" xmlns="http://www.w3.org/2000/svg" xmlns:xlink="http://www.w3.org/1999/xlink">
    <!-- Generator: Sketch 52.4 (67378) - http://www.bohemiancoding.com/sketch -->
    <title>平面</title>
    <desc>Created with Sketch.</desc>
    <g id="Page-1" stroke="none" stroke-width="1" fill="none" fill-rule="evenodd">
        <g id="1.0.4首页-5屏" transform="translate(-1037.000000, -690.000000)">
            <g id="平面" transform="translate(1033.000000, 688.000000)">
                <rect id="Rectangle" fill="#000000" opacity="0" x="0" y="0" width="46" height="46"></rect>
                <path d="M35.6940234,32.2512109 L32.5045703,32.2512109 L32.5045703,29.0617578 C32.5045703,28.4415162 32.0017651,27.9387109 31.3815234,27.9387109 C30.7612818,27.9387109 30.2584766,28.4415162 30.2584766,29.0617578 L30.2584766,32.2512109 L27.0690234,32.2512109 C26.4487818,32.2512109 25.9459766,32.7540162 25.9459766,33.3742578 C25.9459766,33.9944995 26.4487818,34.4973047 27.0690234,34.4973047 L30.2584766,34.4973047 L30.2584766,37.6867578 C30.2584766,38.3069995 30.7612818,38.8098047 31.3815234,38.8098047 C32.0017651,38.8098047 32.5045703,38.3069995 32.5045703,37.6867578 L32.5045703,34.4973047 L35.6940234,34.4973047 C36.3142651,34.4973047 36.8170703,33.9944995 36.8170703,33.3742578 C36.8170703,32.7540162 36.3142651,32.2512109 35.6940234,32.2512109 Z M41.1686523,13.2833984 L32.1842773,3.39699219 C32.0971214,3.30104882 31.9973893,3.21733429 31.887793,3.148125 C31.6313065,2.93788348 31.3097671,2.8232408 30.978125,2.82378906 L7.12460937,2.82378906 C5.59613452,2.82800011 4.35956969,4.0687853 4.36056641,5.59726562 L4.36056641,40.3128906 C4.35981751,41.8411956 5.59630998,43.0817073 7.12460937,43.085918 L38.8758398,43.085918 C40.4041392,43.0817073 41.6406317,41.8411956 41.6398828,40.3128906 L41.6398828,14.3480469 C41.6404321,13.9424931 41.4692194,13.5556733 41.1686523,13.2833984 Z M18.6425781,40.2113672 L18.6425781,31.0360742 L15.7675781,31.0360742 L15.7675781,40.2113672 L7.23556641,40.2113672 L7.23556641,25.8812891 L10.7363281,25.8812891 L10.7363281,23.0062891 L7.23556641,23.0062891 L7.23556641,5.69878906 L15.7675781,5.69878906 L15.7675781,18.2517578 L18.6425781,18.2517578 L18.6425781,5.69878906 L30.3909961,5.69878906 L38.7644336,14.9140625 L38.7644336,23.0053906 L24.078125,23.0053906 L24.078125,25.8803906 L38.7644336,25.8803906 L38.7644336,40.2104688 L18.6425781,40.2113672 Z M20.3945312,20.0760352 L14.1849805,20.0760352 C13.3910711,20.0760352 12.7474805,20.7196258 12.7474805,21.5135352 L12.7474805,27.7248828 C12.7474805,28.5187921 13.3910711,29.1623828 14.1849805,29.1623828 L20.3945312,29.1623828 C21.1884406,29.1623828 21.8320312,28.5187921 21.8320312,27.7248828 L21.8320312,21.5135352 C21.8320312,20.7196258 21.1884406,20.0760352 20.3945312,20.0760352 Z M18.9570312,26.2873828 L15.6224805,26.2873828 L15.6224805,22.9510352 L18.9570312,22.9510352 L18.9570312,26.2873828 Z" id="Shape" fill="#1069D5" fill-rule="nonzero"></path>
            </g>
        </g>
    </g>
</svg>