<?xml version="1.0" encoding="UTF-8"?>
<svg width="46px" height="46px" viewBox="0 0 46 46" version="1.1" xmlns="http://www.w3.org/2000/svg" xmlns:xlink="http://www.w3.org/1999/xlink">
    <!-- Generator: Sketch 52.4 (67378) - http://www.bohemiancoding.com/sketch -->
    <title>规则</title>
    <desc>Created with Sketch.</desc>
    <g id="Page-1" stroke="none" stroke-width="1" fill="none" fill-rule="evenodd">
        <g id="1.0.4首页-5屏" transform="translate(-656.000000, -688.000000)">
            <g id="规则" transform="translate(656.000000, 688.000000)">
                <rect id="Rectangle" fill="#000000" opacity="0" x="0" y="0" width="46" height="46"></rect>
                <path d="M23,3.14286914 C34.1428711,3.14286914 42.9999824,11.9999805 42.9999824,23.1428516 C42.9999824,34.2857227 34.1428711,43.1428789 23,43.1428789 C11.8571289,43.1428789 3.00001758,34.2857227 3.00001758,23.1428516 C3.00001758,11.9999805 11.8571289,3.14286914 23,3.14286914 Z M23,0.285703125 C10.4286133,0.285703125 0.142851563,10.5714648 0.142851563,23.1428516 C0.142851563,35.7142832 10.4286133,46 23,46 C35.5713867,46 45.8571484,35.7142832 45.8571484,23.1428516 C45.8571484,10.5714648 35.5713867,0.285703125 23,0.285703125 Z" id="Shape" fill="#1069D5" fill-rule="nonzero"></path>
                <path d="M23,19.4285762 C21.2857363,19.4285762 20.1428789,20.5713887 20.1428789,21.9999941 L20.1428789,34.2856777 C20.1428789,35.7142832 21.2856914,36.8571406 23,36.8571406 C24.7142637,36.8571406 25.8571211,35.7143281 25.8571211,34.2857227 L25.8571211,22.0000391 C25.8571211,20.5714336 24.7143086,19.4285762 23,19.4285762 Z M23,15.1428496 C24.7142637,15.1428496 25.8571211,14.0000371 25.8571211,12.2857285 C25.8571211,10.5714199 24.7143086,9.4285625 23,9.4285625 C21.2857363,9.4285625 20.1428789,10.5714199 20.1428789,12.2857285 C20.1428789,13.9999922 21.2856914,15.1428496 23,15.1428496 Z" id="Shape" fill="#1069D5" fill-rule="nonzero"></path>
            </g>
        </g>
    </g>
</svg>