<?xml version="1.0" encoding="UTF-8"?>
<svg width="24px" height="20px" viewBox="0 0 24 20" version="1.1" xmlns="http://www.w3.org/2000/svg" xmlns:xlink="http://www.w3.org/1999/xlink">
    <!-- Generator: Sketch 52.4 (67378) - http://www.bohemiancoding.com/sketch -->
    <title>微信</title>
    <desc>Created with Sketch.</desc>
    <g id="Page-1" stroke="none" stroke-width="1" fill="none" fill-rule="evenodd">
        <g id="1.0.4首页-5屏" transform="translate(-28.000000, -492.000000)" fill="#0967D9" fill-rule="nonzero">
            <g id="Group-6" transform="translate(16.000000, 425.000000)">
                <g id="微信" transform="translate(12.000000, 67.000000)">
                    <path d="M16.2413553,6.06024287 C16.5163481,6.06024287 16.7878838,6.08127436 17.0580089,6.11214315 C16.3242708,2.61885282 12.6706528,0.0240648895 8.49990559,0.0240648895 C3.83755662,0.0240648895 0.0179417838,3.27204442 0.0179417838,7.39684472 C0.0179417838,9.77781251 1.28863916,11.7333167 3.41238673,13.2493647 L2.56412119,15.8574103 L5.52861159,14.3378572 C6.59013968,14.5522992 7.44111557,14.7724231 8.49990559,14.7724231 C8.76596522,14.7724231 9.03000586,14.7597872 9.29199992,14.7387557 C9.12600305,14.1584111 9.03000586,13.5514379 9.03000586,12.9219915 C9.03003351,9.13440169 12.2119074,6.06024287 16.2413553,6.06024287 Z M11.6804242,3.71014387 C12.3188567,3.71014387 12.7420076,4.13976287 12.7420076,4.7915976 C12.7420076,5.44207547 12.3188567,5.87658486 11.6804242,5.87658483 C11.0447852,5.87658483 10.4070441,5.44207544 10.4070441,4.7915976 C10.4070441,4.13976285 11.0447852,3.71014387 11.6804242,3.71014387 Z M5.74463984,5.87658483 C5.10894543,5.87658483 4.46711119,5.44207544 4.46711119,4.7915976 C4.46711119,4.13976285 5.10891778,3.71014387 5.74463984,3.71014387 C6.38033424,3.71014387 6.80342986,4.13976287 6.80342986,4.7915976 C6.80342986,5.44207547 6.38033424,5.87658486 5.74463984,5.87658483 Z M23.9820306,12.8175973 C23.9820306,9.35164224 20.5889961,6.52635602 16.7775677,6.52635602 C12.7420076,6.52635602 9.56356327,9.35167052 9.56356324,12.8175973 C9.56356324,16.2898561 12.7420076,19.1089234 16.7775677,19.1089234 C17.6224591,19.1089234 18.4747902,18.8909478 19.3230557,18.6736225 L21.6491137,19.9759351 L21.0113727,17.8094376 C22.7140712,16.503648 23.9820306,14.7724514 23.9820306,12.8175973 Z M14.4391748,11.7333167 C14.0167982,11.7333167 13.5902732,11.3036977 13.5902731,10.8655983 C13.5902731,10.4338875 14.0167982,9.9985866 14.4391748,9.9985866 C15.0803453,9.9985866 15.5007582,10.4338875 15.5007582,10.8655983 C15.5007582,11.3036977 15.0803452,11.7333167 14.4391748,11.7333167 Z M19.1043171,11.7333167 C18.6846233,11.7333167 18.2615276,11.3036977 18.2615276,10.8655983 C18.2615276,10.4338875 18.6845956,9.9985866 19.1043171,9.9985866 C19.7400115,9.9985866 20.1658452,10.4338875 20.1658452,10.8655983 C20.1658452,11.3036977 19.7400115,11.7333167 19.1043171,11.7333167 Z" id="Shape"></path>
                </g>
            </g>
        </g>
    </g>
</svg>