<?xml version="1.0" encoding="UTF-8"?>
<svg width="50px" height="50px" viewBox="0 0 50 50" version="1.1" xmlns="http://www.w3.org/2000/svg" xmlns:xlink="http://www.w3.org/1999/xlink">
    <!-- Generator: Sketch 52.4 (67378) - http://www.bohemiancoding.com/sketch -->
    <title>8</title>
    <desc>Created with Sketch.</desc>
    <g id="Page-1" stroke="none" stroke-width="1" fill="none" fill-rule="evenodd">
        <g id="1.0.3首页-4屏" transform="translate(-1291.000000, -738.000000)">
            <g id="8" transform="translate(1291.000000, 738.000000)">
                <circle id="Oval-Copy-19" fill="#000000" opacity="0.200000003" cx="25" cy="25" r="25"></circle>
                <g id="Group-8" transform="translate(7.000000, 5.000000)">
                    <path d="M31.1003271,14.3094291 C31.1815633,14.2273581 31.2593223,14.1444856 31.3335243,14.0608472 C31.3627538,14.0968081 31.4010793,14.1292435 31.4285714,14.1633914 L31.4285714,14.3553755 C31.3196191,14.3386406 31.2101978,14.3233186 31.1003271,14.3094291 Z M20.2633903,18.3515413 C18.9487308,19.8240818 17.9836283,21.6123604 17.497506,23.587635 C17.0743122,23.602018 16.6464846,23.6093458 16.2146375,23.6093458 C16.0465675,23.6093458 15.8841186,23.60028 15.7178883,23.5985675 C15.5444528,23.60028 15.3819017,23.6093458 15.2138317,23.6093458 C8.21590758,23.6093458 2.27540868,21.6851811 -7.10542736e-15,18.9961654 L-7.10542736e-15,14.1633914 C0.0310691807,14.1310063 0.0638757827,14.0967578 0.096784586,14.0626099 C2.43428053,16.6976841 8.30543588,18.5731957 15.2120943,18.5731957 C15.3819017,18.5731957 15.5444528,18.5659934 15.7142602,18.5623671 C15.8841186,18.5659934 16.044779,18.5731957 16.2146375,18.5731957 C17.6134332,18.5731957 18.9699616,18.496223 20.2633903,18.3515413 Z M19.0222293,33.0527104 C18.1106093,33.1218439 17.1725113,33.1578947 16.2146375,33.1578947 C16.0465675,33.1578947 15.8841186,33.1470661 15.7178883,33.1453034 C15.5444528,33.1470661 15.3819017,33.1578947 15.2138317,33.1578947 C8.21590758,33.1578947 2.27540868,31.2337804 -7.10542736e-15,28.5429012 L-7.10542736e-15,23.7119907 C0.0310691807,23.6777422 0.0638757827,23.6453571 0.096784586,23.6112093 C2.43428053,26.2462834 8.30543588,28.1217447 15.2120943,28.1217447 C15.3819017,28.1217447 15.5444528,28.1145424 15.7142602,28.1109161 C15.8841186,28.1145424 16.044779,28.1217447 16.2146375,28.1217447 C16.5604403,28.1217447 16.9036599,28.1170405 17.2439815,28.1077721 C17.4757496,29.9063087 18.0975151,31.5834849 19.0222293,33.0527104 Z M16.2146375,2.13162821e-14 C23.2125105,2.13162821e-14 29.1549002,1.92406397 31.4285714,4.61494313 L31.4285714,9.44585366 C31.4011304,9.48005185 31.3646445,9.51248725 31.3335754,9.54663508 C28.9942398,12.1835224 23.1230845,14.0608472 16.2146886,14.0608472 C16.0466186,14.0608472 15.8841697,14.0518821 15.7179394,14.0482558 C15.5445039,14.0518821 15.3819528,14.0608472 15.2138828,14.0608472 C8.30911512,14.0608472 2.43795977,12.1835224 0.096784586,9.54844824 C0.0657154053,9.51430041 0.0310691807,9.48186501 4.97379915e-14,9.44585366 L4.97379915e-14,4.61494313 C2.27540868,1.92406397 8.21590758,2.13162821e-14 15.2138317,2.13162821e-14 C15.3819017,2.13162821e-14 15.5444017,0.00896506431 15.7178883,0.0107782234 C15.8841186,0.00896506431 16.0465675,2.13162821e-14 16.2146375,2.13162821e-14 Z" id="Combined-Shape" fill="#FFFFFF" fill-rule="nonzero"></path>
                    <ellipse id="Oval" fill="#FFFFFF" cx="30.4761905" cy="26.5263158" rx="9.52380952" ry="9.47368421"></ellipse>
                    <path d="M30.4761905,18.9473684 C34.6840743,18.9473684 38.0952381,22.3405787 38.0952381,26.5263158 C38.0952381,28.1125454 37.6053568,29.5849594 36.7678802,30.8020207 L30.4761905,27.4736842 L30.4761905,18.9473684 Z" id="Combined-Shape" fill="#1069D5"></path>
                </g>
            </g>
        </g>
    </g>
</svg>