<?xml version="1.0" encoding="UTF-8"?>
<svg width="42px" height="42px" viewBox="0 0 42 42" version="1.1" xmlns="http://www.w3.org/2000/svg" xmlns:xlink="http://www.w3.org/1999/xlink">
    <!-- Generator: Sketch 52.4 (67378) - http://www.bohemiancoding.com/sketch -->
    <title>办证须知</title>
    <desc>Created with Sketch.</desc>
    <g id="Page-1" stroke="none" stroke-width="1" fill="none" fill-rule="evenodd">
        <g id="1.0.4首页-5屏" transform="translate(-1223.000000, -690.000000)">
            <g id="办证须知" transform="translate(1223.000000, 690.000000)">
                <rect id="Rectangle" fill="#000000" opacity="0" x="0" y="0" width="42" height="42"></rect>
                <path d="M21,42 C9.45,42 0,32.55 0,21 C0,9.45 9.45,0 21,0 C32.55,0 42,9.45 42,21 C42,32.55 32.55,42 21,42 Z M21,2.625 C10.89375,2.625 2.625,10.89375 2.625,21 C2.625,31.10625 10.89375,39.375 21,39.375 C31.10625,39.375 39.375,31.10625 39.375,21 C39.375,10.89375 31.10625,2.625 21,2.625 Z M25.85625,12.8625 C27.0375,13.9125 27.5625,15.225 27.5625,16.93125 C27.5625,18.375 27.16875,19.55625 26.5125,20.475 C26.25,20.86875 25.4625,21.525 24.01875,22.70625 C23.49375,23.23125 23.1,23.625 22.8375,24.15 C22.575,24.675 22.3125,25.33125 22.3125,26.11875 L22.3125,26.64375 L19.1625,26.64375 L19.1625,26.11875 C19.1625,25.06875 19.29375,24.15 19.6875,23.3625 C20.08125,22.575 21.13125,21.39375 22.96875,19.81875 L23.49375,19.29375 C24.01875,18.6375 24.28125,17.98125 24.28125,17.19375 C24.28125,16.275 24.01875,15.4875 23.49375,14.83125 C22.96875,14.30625 22.05,13.9125 21.13125,13.9125 C19.81875,13.9125 18.9,14.30625 18.24375,15.09375 C17.71875,15.75 17.45625,16.8 17.45625,18.1125 L14.4375,18.1125 C14.4375,16.0125 15.09375,14.30625 16.275,13.125 C17.45625,11.94375 19.1625,11.2875 21.2625,11.2875 C23.23125,11.2875 24.675,11.8125 25.85625,12.8625 Z M22.3125,28.74375 C22.70625,29.1375 22.96875,29.6625 22.96875,30.1875 C22.96875,30.84375 22.70625,31.2375 22.3125,31.63125 C21.91875,32.025 21.39375,32.15625 20.7375,32.15625 C20.08125,32.15625 19.6875,31.89375 19.29375,31.5 C18.9,31.10625 18.6375,30.58125 18.6375,30.05625 C18.6375,29.4 18.9,29.00625 19.29375,28.6125 C19.6875,28.21875 20.2125,28.0875 20.7375,28.0875 C21.39375,28.21875 21.91875,28.35 22.3125,28.74375 Z" id="Shape" fill="#1069D5" fill-rule="nonzero"></path>
            </g>
        </g>
    </g>
</svg>