<?xml version="1.0" encoding="UTF-8"?>
<svg width="12px" height="16px" viewBox="0 0 12 16" version="1.1" xmlns="http://www.w3.org/2000/svg" xmlns:xlink="http://www.w3.org/1999/xlink">
    <!-- Generator: Sketch 52.4 (67378) - http://www.bohemiancoding.com/sketch -->
    <title>位置</title>
    <desc>Created with Sketch.</desc>
    <g id="Page-1" stroke="none" stroke-width="1" fill="none" fill-rule="evenodd">
        <g id="2.8.0走进南图-统计数字" transform="translate(-1405.000000, -298.000000)" fill="#0967D9" fill-rule="nonzero">
            <g id="head" transform="translate(541.000000, 270.000000)">
                <g id="Group-2">
                    <g id="位置" transform="translate(864.000000, 26.000000)">
                        <path d="M5.99200337,2 C2.68269633,2 0,4.60252142 0,7.81174534 C0,8.87211027 0.297395125,9.86223445 0.808052535,10.7181382 L0.801651119,10.7181382 L5.17790638,16.8446189 C5.49892497,17.2940246 6.12347728,17.3981029 6.57288301,17.0770843 C6.66261301,17.0129886 6.74112377,16.9344929 6.80523677,16.8447752 L11.1833821,10.7181382 C11.6887578,9.86223445 11.9840067,8.87211027 11.9840067,7.81174534 C11.9840067,4.60252142 9.30235554,2 5.99200337,2 Z M2.99653357,7.81123423 C2.99653357,6.20717901 4.33812436,4.9054072 5.99252591,4.9054072 C7.64849519,4.9054072 8.98851826,6.20717901 8.98851826,7.81123423 C8.98851828,9.41632992 7.64849519,10.7170613 5.99252591,10.7170613 C4.33812434,10.7170613 2.99653357,9.41632992 2.99653357,7.81123423 Z"></path>
                    </g>
                </g>
            </g>
        </g>
    </g>
</svg>