<?xml version="1.0" encoding="UTF-8"?>
<svg width="24px" height="19px" viewBox="0 0 24 19" version="1.1" xmlns="http://www.w3.org/2000/svg" xmlns:xlink="http://www.w3.org/1999/xlink">
    <!-- Generator: Sketch 52.4 (67378) - http://www.bohemiancoding.com/sketch -->
    <title>微博</title>
    <desc>Created with Sketch.</desc>
    <g id="Page-1" stroke="none" stroke-width="1" fill="none" fill-rule="evenodd">
        <g id="1.0.4首页-5屏" transform="translate(-30.000000, -553.000000)" fill="#0967D9" fill-rule="nonzero">
            <g id="Group-6" transform="translate(16.000000, 425.000000)">
                <g id="微博" transform="translate(14.000000, 128.000000)">
                    <path d="M17.7921778,9.35097416 C17.4074074,9.31591945 17.0586074,9.10917173 17.3138963,8.68164286 C17.5691852,8.25411398 18.0402667,7.01004711 17.1341037,6.13393921 C16.2279407,5.25433739 14.2465778,5.58727052 12.8441481,6.15498936 C11.4453333,6.72270821 11.5208593,6.32671125 11.564,5.937731 C11.6107556,5.52772948 12.3659259,3.23583283 10.0573037,2.95900456 C7.03312593,2.59806231 3.1530963,6.24612006 1.78302222,8.34876748 C-0.288237037,11.5237599 0.0389925926,13.6719726 0.0389925926,13.6719726 L0.053362963,13.6719726 C0.301481481,16.6366945 4.78204444,18.9986429 10.273037,18.9986429 C14.9944889,18.9986429 18.9716444,17.2499498 20.1474963,14.8739392 C20.1474963,14.8739392 20.1511111,14.8634286 20.1618667,14.8459012 C20.2841481,14.5900653 20.3776296,14.3307644 20.4351407,14.060924 C20.600563,13.4231535 20.7264,12.4979574 20.4171556,11.5868237 C19.866963,9.97479787 18.1768889,9.38602888 17.7921185,9.35103191 L17.7921778,9.35097416 Z M9.59345185,17.701965 C5.68465185,17.701965 2.51303704,15.6553936 2.51303704,13.132234 C2.51303704,10.6090745 5.68106667,8.56250304 9.59345185,8.56250304 C13.5022519,8.56250304 16.6738667,10.6090745 16.6738667,13.132234 C16.6738667,15.6589164 13.5022519,17.701965 9.59345185,17.701965 Z M19.2197926,7.57427204 C19.2917037,7.60580395 19.3672296,7.61983739 19.4427259,7.61983739 C19.6656593,7.61983739 19.8814222,7.49015805 19.9713185,7.27642249 C20.1187556,6.93647264 20.1942519,6.57555927 20.1942519,6.20055471 C20.1942519,4.67965957 18.9248889,3.44258055 17.364237,3.44258055 C16.9830519,3.44258055 16.6127111,3.51615502 16.2638815,3.65983891 C15.9726222,3.7790076 15.8359704,4.10838906 15.9582222,4.39575684 C16.0805037,4.67960182 16.4184889,4.81277508 16.713363,4.69363526 C16.9219259,4.60952128 17.1412741,4.56395593 17.3677926,4.56395593 C18.2955556,4.56395593 19.0470815,5.29987386 19.0470815,6.20049696 C19.0470815,6.42127812 19.0039407,6.63507143 18.9140148,6.83826748 C18.7881778,7.12563526 18.9248,7.45504559 19.2196741,7.57418541 L19.2197926,7.57427204 Z" id="Shape"></path>
                    <path d="M17.3319407,0.00124164134 C16.6882667,0.00124164134 16.0517926,0.092343465 15.4404741,0.267559271 C14.9837926,0.400703647 14.7248889,0.86681003 14.8579259,1.31186626 C14.9945481,1.75692249 15.4728296,2.00923556 15.9295111,1.87958511 C16.3826074,1.74990578 16.8536593,1.68334802 17.3319111,1.68334802 C20.0396741,1.68334802 22.2439704,3.83156079 22.2439704,6.47036626 C22.2439704,6.94346049 22.1720593,7.41303191 22.0354074,7.86161094 C21.8987852,8.30666717 22.1540741,8.77626748 22.6107852,8.90941185 C22.6934815,8.93395593 22.779763,8.94446657 22.8625185,8.94446657 C23.2328889,8.94446657 23.5745185,8.70968085 23.6896,8.3487386 C23.8765926,7.7425 23.9736889,7.11168845 23.9736889,6.47036626 C23.9700741,2.90287082 20.9926519,0.00124164134 17.332,0.00124164134 L17.3319407,0.00124164134 Z M8.93899259,10.230576 C6.85336296,10.230576 5.16325926,11.6709088 5.16325926,13.4511337 C5.16325926,15.2313587 6.85333333,16.6716915 8.93899259,16.6716915 C11.0246519,16.6716915 12.7147259,15.2313587 12.7147259,13.4511337 C12.7147259,11.6709088 11.0246519,10.230576 8.93899259,10.230576 Z M7.70557037,15.5432994 C6.97558519,15.5432994 6.38228148,14.9650699 6.38228148,14.253696 C6.38228148,13.5423222 6.97561481,12.9640927 7.70557037,12.9640927 C8.43555556,12.9640927 9.02885926,13.5423222 9.02885926,14.253696 C9.02885926,14.9650988 8.43552593,15.5432994 7.70557037,15.5432994 Z M10.1796148,13.2198708 C10.0213926,13.4897112 9.70133333,13.6018632 9.46761481,13.46869 C9.2338963,13.3390106 9.17635556,13.0131231 9.33454815,12.7432827 C9.49277037,12.4734422 9.81282963,12.3612903 10.0465481,12.4944635 C10.2802667,12.6276079 10.3378074,12.9535532 10.1796148,13.2198708 Z" id="Shape"></path>
                </g>
            </g>
        </g>
    </g>
</svg>