<?xml version="1.0" encoding="UTF-8"?>
<svg width="20px" height="24px" viewBox="0 0 20 24" version="1.1" xmlns="http://www.w3.org/2000/svg" xmlns:xlink="http://www.w3.org/1999/xlink">
    <!-- Generator: Sketch 52.4 (67378) - http://www.bohemiancoding.com/sketch -->
    <title>主题阅读</title>
    <desc>Created with Sketch.</desc>
    <g id="Page-1" stroke="none" stroke-width="1" fill="none" fill-rule="evenodd">
        <g id="1.0.2首页-3屏-" transform="translate(-404.000000, -219.000000)" fill="#0967D9">
            <g id="主题阅读" transform="translate(404.000000, 219.000000)">
                <path d="M9.9195231,23.991 C9.64232489,23.991 9.36214605,23.979 9.08792846,23.952 C6.00596125,23.67 3.18926975,21.99 1.55588674,19.458 C-1.07302534,15.384 -0.283159463,10.032 3.47540984,6.438 L3.6780924,6.246 C5.53502235,4.473 7.13859911,2.94 8.08643815,0.357 C8.14307004,0.201 8.27421759,0.081 8.43517139,0.039 C8.59910581,-0.003 8.76602086,0.039 8.89418778,0.147 C12.5365127,3.309 13.7764531,7.509 13.2757079,10.578 C14.709389,9.516 15.6154993,8.181 16.3457526,6.135 C16.4083458,5.958 16.5663189,5.829 16.7540984,5.802 C16.9388972,5.775 17.1266766,5.856 17.2369598,6.009 C19.0342772,8.535 20.0119225,11.394 19.9880775,14.058 C19.976155,15.555 19.6512668,16.971 19.0223547,18.267 C17.3591654,21.693 13.7019374,23.991 9.9195231,23.991 Z" id="Path"></path>
            </g>
        </g>
    </g>
</svg>