<?xml version="1.0" encoding="UTF-8"?>
<svg width="47px" height="48px" viewBox="0 0 47 48" version="1.1" xmlns="http://www.w3.org/2000/svg" xmlns:xlink="http://www.w3.org/1999/xlink">
    <!-- Generator: Sketch 52.4 (67378) - http://www.bohemiancoding.com/sketch -->
    <title>时间</title>
    <desc>Created with Sketch.</desc>
    <g id="Page-1" stroke="none" stroke-width="1" fill="none" fill-rule="evenodd">
        <g id="1.0.4首页-5屏" transform="translate(-464.000000, -687.000000)">
            <g id="时间" transform="translate(459.000000, 683.000000)">
                <rect id="Rectangle" fill="#000000" opacity="0" x="0" y="0" width="56" height="56"></rect>
                <path d="M28.644,7.98 C39.676,7.98 48.664,16.968 48.664,28 C48.664,39.032 39.676,48.02 28.644,48.02 C17.612,48.02 8.596,39.032 8.596,28 C8.596,16.968 17.584,7.98 28.644,7.98 Z M28.644,4.76 C15.82,4.76 5.404,15.176 5.404,28 C5.404,40.824 15.792,51.24 28.644,51.24 C41.468,51.24 51.884,40.852 51.884,28 C51.884,15.176 41.468,4.76 28.644,4.76 Z M31.052,32.536 C30.632,32.536 30.24,32.368 29.932,32.06 L21.448,23.576 C20.832,22.96 20.832,21.924 21.448,21.308 C22.064,20.692 23.1,20.692 23.716,21.308 L32.2,29.792 C32.816,30.408 32.816,31.444 32.2,32.06 C31.892,32.368 31.472,32.536 31.052,32.536 Z M28.644,34.16 C27.748,34.16 27.048,33.432 27.048,32.564 L27.048,16.772 C27.048,15.876 27.776,15.176 28.644,15.176 C29.54,15.176 30.24,15.904 30.24,16.772 L30.24,32.536 C30.24,33.432 29.512,34.16 28.644,34.16 Z M13.076,29.596 L10.668,29.596 C9.772,29.596 9.072,28.868 9.072,28 C9.072,27.104 9.8,26.404 10.668,26.404 L13.076,26.404 C13.972,26.404 14.672,27.132 14.672,28 C14.672,28.868 13.972,29.596 13.076,29.596 Z M46.62,29.596 L44.24,29.596 C43.344,29.596 42.644,28.868 42.644,28 C42.644,27.104 43.372,26.404 44.24,26.404 L46.648,26.404 C47.544,26.404 48.244,27.132 48.244,28 C48.244,28.868 47.516,29.596 46.62,29.596 Z M28.616,13.972 C28.616,13.972 28.616,13.972 28.616,13.972 C27.72,13.972 27.02,13.244 27.02,12.376 L27.02,9.968 C27.02,9.072 27.748,8.372 28.616,8.372 C28.616,8.372 28.616,8.372 28.616,8.372 C29.512,8.372 30.212,9.1 30.212,9.968 L30.212,12.376 C30.212,13.244 29.484,13.972 28.616,13.972 Z M28.616,47.628 C27.72,47.628 27.02,46.9 27.02,46.032 L27.02,43.624 C27.02,42.728 27.748,42.028 28.616,42.028 C28.616,42.028 28.616,42.028 28.616,42.028 C29.512,42.028 30.212,42.756 30.212,43.624 L30.212,46.032 C30.212,46.9 29.484,47.628 28.616,47.628 C28.616,47.628 28.616,47.628 28.616,47.628 Z" id="Shape" fill="#1069D5" fill-rule="nonzero"></path>
            </g>
        </g>
    </g>
</svg>