<?xml version="1.0" encoding="UTF-8"?>
<svg width="50px" height="50px" viewBox="0 0 50 50" version="1.1" xmlns="http://www.w3.org/2000/svg" xmlns:xlink="http://www.w3.org/1999/xlink">
    <!-- Generator: Sketch 52.4 (67378) - http://www.bohemiancoding.com/sketch -->
    <title>5</title>
    <desc>Created with Sketch.</desc>
    <g id="Page-1" stroke="none" stroke-width="1" fill="none" fill-rule="evenodd">
        <g id="1.0.3首页-4屏" transform="translate(-420.000000, -738.000000)">
            <g id="5" transform="translate(420.000000, 738.000000)">
                <circle id="Oval-Copy-16" fill="#000000" opacity="0.200000003" cx="25" cy="25" r="25"></circle>
                <g id="Group-9" transform="translate(5.000000, 6.000000)">
                    <path d="M0,0 L21.3170732,-1.77635684e-15 C25.4120625,-2.52859418e-15 28.7317073,3.31964478 28.7317073,7.41463415 L28.7317073,24.8684211 L0,24.8684211 L0,0 Z" id="Rectangle" fill="#FFFFFF"></path>
                    <g id="胶卷" transform="translate(24.097561, 27.631579) rotate(-90.000000) translate(-24.097561, -27.631579) translate(16.682927, 13.815789)" fill="#FFFFFF" fill-rule="nonzero">
                        <path d="M14.8292683,18.4210526 L12.9756098,18.4210526 L11.1219512,18.4210526 L10.195122,18.4210526 L10.195122,-3.55271368e-15 L11.1219512,0 L11.1219512,1.84210527 L12.9756097,1.84210527 L12.9756097,0 L14.8292683,0 L14.8292683,16.5789474 L14.8292683,18.4210526 Z M14.8292683,20.2631579 L14.8292683,27.6315789 L12.9756098,27.6315789 L12.9756098,25.7894737 L11.1219512,25.7894737 L11.1219512,27.6315789 L3.70731708,27.6315789 L3.70731708,25.7894737 L1.85365854,25.7894737 L1.85365854,27.6315789 L0,27.6315789 L0,16.5789474 L0,0 L1.85365854,0 L1.85365852,1.84210527 L3.70731706,1.84210527 L3.70731706,0 L8.34146341,0 L8.34146341,20.2631579 L9.26829268,20.2631579 L11.1219512,20.2631579 L12.9756098,20.2631579 L14.8292683,20.2631579 Z M3.70731707,9.21052632 L3.70731707,7.36842105 L1.85365854,7.36842105 L1.85365854,9.21052632 L3.70731707,9.21052632 Z M3.70731707,5.52631579 L3.70731707,3.68421053 L1.85365854,3.68421053 L1.85365854,5.52631579 L3.70731707,5.52631579 Z M12.9756098,12.8947368 L12.9756098,11.0526316 L11.1219512,11.0526316 L11.1219512,12.8947368 L12.9756098,12.8947368 Z M12.9756098,9.21052632 L12.9756098,7.36842105 L11.1219512,7.36842105 L11.1219512,9.21052632 L12.9756098,9.21052632 Z M12.9756098,5.52631579 L12.9756098,3.68421053 L11.1219512,3.68421053 L11.1219512,5.52631579 L12.9756098,5.52631579 Z M3.70731707,23.9473684 L3.70731707,22.1052632 L1.85365854,22.1052632 L1.85365854,23.9473684 L3.70731707,23.9473684 Z M3.70731707,20.2631579 L3.70731707,18.4210526 L1.85365854,18.4210526 L1.85365854,20.2631579 L3.70731707,20.2631579 Z M3.70731707,16.5789474 L3.70731707,14.7368421 L1.85365854,14.7368421 L1.85365854,16.5789474 L3.70731707,16.5789474 Z M12.9756098,23.9473684 L12.9756098,22.1052632 L11.1219512,22.1052632 L11.1219512,23.9473684 L12.9756098,23.9473684 Z M12.9756098,16.5789474 L12.9756098,14.7368421 L11.1219512,14.7368421 L11.1219512,16.5789474 L12.9756098,16.5789474 Z M1.85365854,11.0526316 L1.85365854,12.8947368 L3.70731707,12.8947368 L3.70731707,11.0526316 L1.85365854,11.0526316 Z" id="Combined-Shape"></path>
                    </g>
                    <path d="M16.8657484,10.019839 L17.6077879,16.3618543 C17.6672732,16.8702598 17.3033515,17.3306263 16.794946,17.3901116 C16.7233852,17.3984845 16.6510921,17.3984845 16.5795313,17.3901117 L10.2374931,16.6480748 C9.72908751,16.5885899 9.36516544,16.1282237 9.42465037,15.6198181 C9.44889281,15.4126229 9.54232517,15.2196649 9.68983398,15.0721567 L15.2898328,9.47217827 C15.6517828,9.11022959 16.2386186,9.11023066 16.6005673,9.47218066 C16.7480746,9.61968847 16.841506,9.81264523 16.8657484,10.019839 Z" id="Rectangle" fill="#1069D5" transform="translate(13.516219, 13.298554) rotate(-45.000000) translate(-13.516219, -13.298554) "></path>
                </g>
            </g>
        </g>
    </g>
</svg>