<?xml version="1.0" encoding="UTF-8"?>
<svg width="20px" height="24px" viewBox="0 0 20 24" version="1.1" xmlns="http://www.w3.org/2000/svg" xmlns:xlink="http://www.w3.org/1999/xlink">
    <!-- Generator: Sketch 52.4 (67378) - http://www.bohemiancoding.com/sketch -->
    <title>借</title>
    <desc>Created with Sketch.</desc>
    <g id="Page-1" stroke="none" stroke-width="1" fill="none" fill-rule="evenodd">
        <g id="1.0.3首页-4屏" transform="translate(-414.000000, -504.000000)" fill="#92C7F2">
            <path d="M418,509 L418,528 C415.790861,528 414,526.209139 414,524 L414,508 C414,505.790861 415.790861,504 418,504 L434,504 L434,506 L417.5,506 C416.671573,506 416,506.671573 416,507.5 C416,508.328427 416.671573,509 417.5,509 L418,509 Z M419,509 L434,509 L434,528 L419,528 L419,509 Z M424.623047,518.616211 L424.623047,523.264648 L425.365234,523.264648 L425.365234,522.74707 L429.134766,522.74707 L429.134766,523.264648 L429.876953,523.264648 L429.876953,518.616211 L424.623047,518.616211 Z M423.871094,517.141602 L423.871094,517.805664 L430.785156,517.805664 L430.785156,517.141602 L428.949219,517.141602 L428.949219,515.754883 L430.433594,515.754883 L430.433594,515.09082 L428.949219,515.09082 L428.949219,513.743164 L428.207031,513.743164 L428.207031,515.09082 L426.263672,515.09082 L426.263672,513.743164 L425.521484,513.743164 L425.521484,515.09082 L424.261719,515.09082 L424.261719,515.754883 L425.521484,515.754883 L425.521484,517.141602 L423.871094,517.141602 Z M421.166016,518.166992 C421.263672,518.401368 421.367838,518.694334 421.478516,519.045898 C421.813804,518.616209 422.136066,518.140953 422.445312,517.620117 L422.445312,523.264648 L423.1875,523.264648 L423.1875,516.223633 C423.516278,515.533525 423.828775,514.78158 424.125,513.967773 L423.363281,513.704102 C422.894529,515.234057 422.162114,516.721672 421.166016,518.166992 Z M429.134766,519.280273 L429.134766,520.364258 L425.365234,520.364258 L425.365234,519.280273 L429.134766,519.280273 Z M425.365234,522.083008 L425.365234,521.008789 L429.134766,521.008789 L429.134766,522.083008 L425.365234,522.083008 Z M426.263672,517.141602 L426.263672,515.754883 L428.207031,515.754883 L428.207031,517.141602 L426.263672,517.141602 Z" id="借"></path>
        </g>
    </g>
</svg>