<?xml version="1.0" encoding="UTF-8"?>
<svg width="46px" height="46px" viewBox="0 0 46 46" version="1.1" xmlns="http://www.w3.org/2000/svg" xmlns:xlink="http://www.w3.org/1999/xlink">
    <!-- Generator: Sketch 52.4 (67378) - http://www.bohemiancoding.com/sketch -->
    <title>行车指南</title>
    <desc>Created with Sketch.</desc>
    <g id="Page-1" stroke="none" stroke-width="1" fill="none" fill-rule="evenodd">
        <g id="1.0.4首页-5屏" transform="translate(-846.000000, -688.000000)" fill="#1069D5" fill-rule="nonzero">
            <g id="行车指南" transform="translate(846.000000, 688.000000)">
                <path d="M23,45.75 C10.43875,45.75 0.25,35.56125 0.25,23 C0.25,10.43225 10.43875,0.25 23,0.25 C35.5645,0.25 45.75,10.43225 45.75,23 C45.75,35.56125 35.5645,45.75 23,45.75 Z M4.5075,23.143 C4.5075,23.858 4.5595,24.56 4.6375,25.25225 L17.38725,25.25225 C17.38725,25.25225 16.23675,21.362 15.6615,20.062 C15.08625,18.762 13.939,18.9115 13.939,18.9115 C13.939,18.9115 7.85175,18.97 5.0015,18.94725 C4.6895,20.296 4.5075,21.69675 4.5075,23.143 Z M15.083,29.57475 C15.083,30.6895 15.98325,31.593 17.09475,31.593 C18.20625,31.593 19.1065,30.6895 19.1065,29.57475 C19.1065,28.46 18.20625,27.55975 17.09475,27.55975 C15.98325,27.55975 15.083,28.46325 15.083,29.57475 Z M23.005953,2.605 C13.6861425,2.605 5.82401829,8.78733644 3.2875,17.2632945 C3.43182536,17.0436541 3.56532633,16.7988091 3.70965169,16.5935714 C7.58839587,16.607974 13.5273846,16.5359608 13.5273846,16.5359608 C13.5273846,16.5359608 15.5695885,16.5359608 16.0819436,17.8141958 C16.4896627,18.8403844 18.3117705,23.1899839 19.0045322,24.8390871 L19.2715342,24.8390871 C19.3292643,24.8390871 19.3797782,24.8498891 19.4339002,24.8570904 C19.5241035,24.5618361 19.6612126,24.3133904 19.8668763,24.1945686 C20.6426251,23.7480865 21.3173462,22.8479211 22.0967032,24.648252 C22.7678161,26.1893353 22.5260711,26.8050485 21.1874534,27.4567683 L21.1874534,35.0613661 C21.1874534,36.1199607 20.3323256,36.9769183 19.2715342,36.9769183 L18.6328944,36.9769183 L18.6328944,39.5297875 C18.6328944,39.886253 18.3478518,40.1707053 17.9942547,40.1707053 L14.801056,40.1707053 C14.4474588,40.1707053 14.1624162,39.886253 14.1624162,39.5297875 L14.1624162,36.9769183 L7.82653272,36.9769183 C11.5862085,41.0888741 16.9875853,43.67775 23.005953,43.67775 C34.3715755,43.67775 43.58675,34.4816596 43.58675,23.1395747 C43.58675,11.7974898 34.3715755,2.605 23.005953,2.605 Z M38.2295,25.23275 L25.12225,25.23275 L25.12225,22.55475 L38.22625,22.55475 C38.93475,22.55475 39.51,23.156 39.51,23.8905 C39.51,24.6315 38.93475,25.23275 38.2295,25.23275 Z M36.55575,19.87675 L25.12225,19.87675 L25.12225,17.202 L36.55575,17.202 C37.26425,17.202 37.8395,17.80325 37.8395,18.53775 C37.83625,19.27875 37.26425,19.87675 36.55575,19.87675 Z M33.9915,14.52725 L25.12225,14.52725 L25.12225,11.846 L33.9915,11.846 C34.7,11.846 35.27525,12.44725 35.27525,13.185 C35.272,13.92275 34.7,14.52725 33.9915,14.52725 Z" id="Shape"></path>
            </g>
        </g>
    </g>
</svg>