<?xml version="1.0" encoding="UTF-8"?>
<svg width="20px" height="24px" viewBox="0 0 20 24" version="1.1" xmlns="http://www.w3.org/2000/svg" xmlns:xlink="http://www.w3.org/1999/xlink">
    <!-- Generator: Sketch 52.4 (67378) - http://www.bohemiancoding.com/sketch -->
    <title>还 copy</title>
    <desc>Created with Sketch.</desc>
    <g id="Page-1" stroke="none" stroke-width="1" fill="none" fill-rule="evenodd">
        <g id="1.0.3首页-4屏" transform="translate(-802.000000, -550.000000)" fill="#92C7F2">
            <path d="M806,555 L806,574 C803.790861,574 802,572.209139 802,570 L802,554 C802,551.790861 803.790861,550 806,550 L822,550 L822,552 L805.5,552 C804.671573,552 804,552.671573 804,553.5 C804,554.328427 804.671573,555 805.5,555 L806,555 Z M807,555 L822,555 L822,574 L807,574 L807,555 Z M812.046875,560.495117 L812.046875,561.217773 L815.113281,561.217773 C814.462236,563.034189 813.228525,564.560866 811.412109,565.797852 C811.613933,565.999675 811.792968,566.194986 811.949219,566.383789 C813.069016,565.615556 813.996741,564.700852 814.732422,563.639648 L814.732422,567.838867 L815.513672,567.838867 L815.513672,563.678711 C816.418624,564.38835 817.317053,565.153316 818.208984,565.973633 L818.765625,565.30957 C817.899735,564.567379 816.932948,563.789392 815.865234,562.975586 L815.513672,563.385742 L815.513672,562.321289 C815.682944,561.963214 815.839192,561.595379 815.982422,561.217773 L818.648438,561.217773 L818.648438,560.495117 L812.046875,560.495117 Z M813.169922,568.336914 C812.212886,568.317383 811.529299,567.98861 811.119141,567.350586 L811.119141,563.19043 L809.205078,563.19043 L809.205078,563.913086 L810.367188,563.913086 L810.367188,567.204102 C810.022134,567.523114 809.605471,567.920245 809.117188,568.395508 L809.517578,569.206055 C810.025393,568.600583 810.416014,568.164389 810.689453,567.897461 C811.151695,568.639652 811.923172,569.017253 813.003906,569.030273 C814.761728,569.075847 816.617178,569.088867 818.570312,569.069336 C818.68099,568.769855 818.772135,568.512696 818.84375,568.297852 C816.929678,568.362956 815.038421,568.375977 813.169922,568.336914 Z M810.337891,559.90918 L809.712891,560.329102 C810.13607,560.902021 810.569008,561.540036 811.011719,562.243164 L811.705078,561.754883 C811.249347,561.103838 810.793622,560.48861 810.337891,559.90918 Z" id="还-copy"></path>
        </g>
    </g>
</svg>