<?xml version="1.0" encoding="UTF-8"?>
<svg width="24px" height="18px" viewBox="0 0 24 18" version="1.1" xmlns="http://www.w3.org/2000/svg" xmlns:xlink="http://www.w3.org/1999/xlink">
    <!-- Generator: Sketch 52.4 (67378) - http://www.bohemiancoding.com/sketch -->
    <title>剪影</title>
    <desc>Created with Sketch.</desc>
    <g id="Page-1" stroke="none" stroke-width="1" fill="none" fill-rule="evenodd">
        <g id="1.0.1首页-2屏" transform="translate(-406.000000, -665.000000)" fill="#0967D9" fill-rule="nonzero">
            <g id="剪影" transform="translate(406.000000, 665.000000)">
                <path d="M21.6,0 L2.4,0 C1.07485714,0 0,1.07485714 0,2.4 L0,15.5982857 C0,16.9234286 1.07485714,17.9982857 2.4,17.9982857 L21.6,17.9982857 C22.9251429,17.9982857 24,16.9234286 24,15.5982857 L24,2.4 C24,1.07485714 22.9251429,0 21.6,0 Z M21.6,13.2 L20.4,13.2 C20.4,13.2 19.6045714,11.4377143 18,10.8 C16.3954286,10.1622857 14.4,13.2 14.4,13.2 C14.4,13.2 12.6171429,11.2765714 10.8,7.2 C8.98285714,3.12342857 2.4,12 2.4,12 L2.4,2.4 L21.6,2.4 L21.6,13.2 Z M16.2,8.4 C17.1925714,8.4 18,7.59257143 18,6.59828571 C18,5.60571429 17.1925714,4.79828571 16.2,4.79828571 C15.2057143,4.8 14.4,5.60742857 14.4,6.6 C14.4,7.59428571 15.2057143,8.4 16.2,8.4 Z" id="Shape"></path>
            </g>
        </g>
    </g>
</svg>