<?xml version="1.0" encoding="UTF-8"?>
<svg width="42px" height="41px" viewBox="0 0 42 41" version="1.1" xmlns="http://www.w3.org/2000/svg" xmlns:xlink="http://www.w3.org/1999/xlink">
    <!-- Generator: Sketch 52.4 (67378) - http://www.bohemiancoding.com/sketch -->
    <title>服务项目</title>
    <desc>Created with Sketch.</desc>
    <g id="Page-1" stroke="none" stroke-width="1" fill="none" fill-rule="evenodd">
        <g id="1.0.4首页-5屏" transform="translate(-1413.000000, -685.000000)">
            <g id="服务项目" transform="translate(1413.000000, 685.000000)">
                <rect id="Rectangle" fill="#000000" opacity="0" x="0" y="0" width="42" height="42"></rect>
                <path d="M21,17.71875 C19.2228488,17.7399651 17.5119169,17.045167 16.2527252,15.7909132 C14.9935334,14.5366595 14.292018,12.8284708 14.30625,11.05125 C14.30625,7.21875 19.55625,1.785 20.055,1.18125 C20.5883192,0.687655524 21.4116808,0.687655524 21.945,1.18125 C22.5225,1.785 27.69375,7.21875 27.69375,11.05125 C27.707982,12.8284708 27.0064666,14.5366595 25.7472748,15.7909132 C24.4880831,17.045167 22.7771512,17.7399651 21,17.71875 Z M21,4.0425 C19.0426704,5.97385403 17.6378298,8.39380522 16.93125,11.05125 C16.93125,13.2983586 18.7528914,15.12 21,15.12 C23.2471086,15.12 25.06875,13.2983586 25.06875,11.05125 C24.3681763,8.39131994 22.9624661,5.96987077 21,4.0425 Z M17.43,41.0025 L6.69375,41.0025 C6.23300048,41.0051832 5.804586,40.7660681 5.565,40.3725 L1.96875,34.3875 C0.68276495,32.2372773 0.00248134627,29.7791859 3.75877107e-14,27.27375 L3.75877107e-14,11.05125 C3.77058571e-14,10.3263763 0.587626266,9.73875 1.3125,9.73875 C4.00993138,9.74226373 6.40582565,11.4626636 7.27125,14.0175 L8.8725,18.8475 C11.1632373,17.8975324 13.79247,18.960911 14.77875,21.23625 L17.40375,27.51 C18.2258575,29.4632193 18.6540527,31.5595916 18.66375,33.67875 L18.66375,39.69 C18.652335,40.3801284 18.118104,40.9484593 17.43,41.0025 Z M7.42875,38.3775 L16.1175,38.3775 L16.1175,33.67875 C16.1141172,31.9193706 15.757042,30.1786287 15.0675,28.56 L12.4425,22.26 C12.2123885,21.7506519 11.7713667,21.3671546 11.235,21.21 C10.5540531,20.9924229 9.80861858,21.1776576 9.30871935,21.6886657 C8.80882012,22.1996738 8.64001141,22.9489988 8.8725,23.625 L11.4975,30.16125 C11.7471823,30.6055658 11.7170699,31.1542536 11.4202647,31.5685777 C11.1234596,31.9829018 10.6136321,32.1879411 10.11261,32.0944823 C9.61158782,32.0010236 9.20996932,31.6259666 9.0825,31.1325 L6.4575,24.6225 C5.95356545,23.3516376 6.0599783,21.9199011 6.74625,20.7375 L4.7775,14.8575 C4.43078013,13.8227267 3.64209968,12.995574 2.625,12.6 L2.625,27.27375 C2.62733827,29.3080442 3.18068327,31.3037146 4.22625,33.04875 L7.42875,38.3775 Z M35.30625,41.0025 L24.57,41.0025 C23.8509903,40.9885347 23.2714653,40.4090097 23.2575,39.69 L23.2575,33.67875 C23.2671973,31.5595916 23.6953925,29.4632193 24.5175,27.51 L27.1425,21.23625 C28.12878,18.960911 30.7580127,17.8975324 33.04875,18.8475 L34.65,14.0175 C35.5245891,11.4350553 37.9611474,9.70827699 40.6875,9.73875 C41.4123737,9.73875 42,10.3263763 42,11.05125 L42,27.27375 C41.9975187,29.7791859 41.3172351,32.2372773 40.03125,34.3875 L36.435,40.3725 C36.195414,40.7660681 35.7669995,41.0051832 35.30625,41.0025 Z M25.8825,38.3775 L34.57125,38.3775 L37.77375,33.1275 C38.8193167,31.3824646 39.3726617,29.3867942 39.375,27.3525 L39.375,12.6 C38.3579003,12.995574 37.5692199,13.8227267 37.2225,14.8575 L35.25375,20.7375 C35.9735519,21.9269683 36.0902924,23.3862241 35.56875,24.675 L32.94375,31.21125 C32.826871,31.5380647 32.5803556,31.8021924 32.2623704,31.941311 C31.9443853,32.0804295 31.5830957,32.0822164 31.26375,31.94625 C30.9351216,31.8236436 30.6708176,31.5721485 30.5320506,31.2500109 C30.3932836,30.9278733 30.3920914,30.5630377 30.52875,30.24 L33.15375,23.70375 C33.4867162,22.8785443 33.1898789,21.9330625 32.445,21.44625 C31.9861748,21.1246754 31.402982,21.0371964 30.87,21.21 C30.3336333,21.3671546 29.8926115,21.7506519 29.6625,22.26 L27.0375,28.56 C26.347958,30.1786287 25.9908828,31.9193706 25.9875,33.67875 L25.8825,38.3775 Z" id="Shape" fill="#1069D5" fill-rule="nonzero"></path>
            </g>
        </g>
    </g>
</svg>