<?xml version="1.0" encoding="UTF-8"?>
<svg width="24px" height="24px" viewBox="0 0 24 24" version="1.1" xmlns="http://www.w3.org/2000/svg" xmlns:xlink="http://www.w3.org/1999/xlink">
    <!-- Generator: Sketch 52.4 (67378) - http://www.bohemiancoding.com/sketch -->
    <title>user (1)</title>
    <desc>Created with Sketch.</desc>
    <g id="Page-1" stroke="none" stroke-width="1" fill="none" fill-rule="evenodd">
        <g id="1.0.4首页-5屏" transform="translate(-29.000000, -430.000000)" fill="#0967D9" fill-rule="nonzero">
            <g id="Group-6" transform="translate(16.000000, 425.000000)">
                <g id="user-(1)" transform="translate(13.000000, 5.000000)">
                    <path d="M23.9902423,20.4930883 L23.9902423,21.5921939 C23.9902423,22.8911368 22.8911368,23.9902423 21.5921939,23.9902423 L2.40780614,23.9902423 C1.10886322,23.9902423 0.00975767442,22.8911368 0.00975767442,21.5921939 L0.00975767442,20.4930883 C0.00975767442,17.5954464 3.40699299,15.7969101 6.60439096,14.3980485 L6.90414703,14.2481704 C7.15394375,14.1482517 7.40374047,14.1482517 7.65353716,14.2981298 C8.95248008,15.1474386 10.401301,15.5970727 11.9500407,15.5970727 C13.4987803,15.5970727 14.9975606,15.0974792 16.2465441,14.2981298 C16.4963409,14.1482517 16.7461376,14.1482517 16.9959343,14.2481704 L17.2956904,14.3980485 C20.593007,15.7969101 23.9902423,17.5454871 23.9902423,20.4930883 Z M12,0.00975767442 C15.2973166,0.00975767442 17.9451618,2.9573589 17.9451618,6.60439096 C17.9451618,10.251423 15.2973166,13.1990242 12,13.1990242 C8.70268336,13.1990242 6.05483817,10.251423 6.05483817,6.60439096 C6.05483817,2.95735893 8.70268336,0.00975767442 12,0.00975767442 Z" id="Shape"></path>
                </g>
            </g>
        </g>
    </g>
</svg>