<?xml version="1.0" encoding="UTF-8"?>
<svg width="50px" height="50px" viewBox="0 0 50 50" version="1.1" xmlns="http://www.w3.org/2000/svg" xmlns:xlink="http://www.w3.org/1999/xlink">
    <!-- Generator: Sketch 52.4 (67378) - http://www.bohemiancoding.com/sketch -->
    <title>3</title>
    <desc>Created with Sketch.</desc>
    <g id="Page-1" stroke="none" stroke-width="1" fill="none" fill-rule="evenodd">
        <g id="1.0.3首页-4屏" transform="translate(-1001.000000, -640.000000)">
            <g id="3" transform="translate(1001.000000, 640.000000)">
                <circle id="Oval-Copy-14" fill="#000000" opacity="0.200000003" cx="25" cy="25" r="25"></circle>
                <g id="企业文化" transform="translate(5.000000, 5.000000)" fill-rule="nonzero">
                    <path d="M2.4962212,3.36045964 L2.4962212,30.7393326 C2.4962212,30.7393326 6.02142378,28.0681508 10.9602182,28.0681508 C15.8647535,28.0681508 19.3898618,30.7393326 19.3898618,30.7393326 L19.3898618,3.73176055 C19.3898618,3.73176055 15.8646592,0.615160625 10.9602182,0.615160625 C6.02142378,0.615160625 2.4962212,3.36045964 2.4962212,3.36045964 Z M20.6167742,3.36045964 L20.6167742,30.7393326 C20.6167742,30.7393326 24.1248,28.0681508 29.0635945,28.0681508 C34.0023889,28.0681508 37.5104147,30.7393326 37.5104147,30.7393326 L37.5104147,3.73176055 C37.5104147,3.73176055 34.0023889,0.615160625 29.0635945,0.615160625 C24.1248,0.615160625 20.6167742,3.36045964 20.6167742,3.36045964 Z" id="Shape" fill="#FFFFFF"></path>
                    <polygon id="Path" fill="#FFFFFF" points="0.0423963134 8.51023496 1.17493088 8.51023496 1.17493088 32.546361 17.0304147 32.546361 17.0304147 33.7669456 23.0705991 33.7669456 23.0705991 32.546361 38.8317051 32.546361 38.8317051 8.51023496 39.9642396 8.51023496 39.9642396 33.7669456 24.7312723 33.7669456 24.7997906 34.9875301 15.7091244 34.9875301 15.7091244 33.7669456 0.0423963134 33.7669456"></polygon>
                    <path d="M4.68765248,9.5 L4.68765248,8.1095656 C6.4452186,6.70351269 8.55575668,6 11,6 L11,7.29508743 C8.77757665,7.29508743 6.26341968,8.23938624 4.68765248,9.5 Z" id="Path-2" fill="#1069D5"></path>
                    <path d="M4.43743612,14 L4.43743612,12.6238332 C8.41169669,9.69310384 12.2293547,9.5 17.0555019,10.8765824 L17.0555019,12.2018012 C11.9321038,10.5189405 8.60314638,11.1724306 4.43743612,14 Z" id="Path-3" fill="#1069D5"></path>
                </g>
            </g>
        </g>
    </g>
</svg>