<?xml version="1.0" encoding="UTF-8"?>
<svg width="16px" height="16px" viewBox="0 0 16 16" version="1.1" xmlns="http://www.w3.org/2000/svg" xmlns:xlink="http://www.w3.org/1999/xlink">
    <!-- Generator: Sketch 52.4 (67378) - http://www.bohemiancoding.com/sketch -->
    <title>Combined Shape</title>
    <desc>Created with Sketch.</desc>
    <g id="Page-1" stroke="none" stroke-width="1" fill="none" fill-rule="evenodd">
        <g id="1.0.0首页-1屏" transform="translate(-574.000000, -483.000000)" fill="#5BDEFF">
            <g id="Group-4" transform="translate(560.000000, 410.000000)">
                <path d="M19,84.6128454 L19,87.0555748 C19,87.6078596 18.5522847,88.0555748 18,88.0555748 C17.4477153,88.0555748 17,87.6078596 17,87.0555748 L17,84.4868279 C15.2747728,84.0427851 14,82.4766848 14,80.6128454 C14,78.4037064 15.790861,76.6128454 18,76.6128454 L21,76.6128454 L21,84.6128454 L19,84.6128454 Z M22,75.6128454 L28.6488766,73.1195167 C29.1659969,72.9255966 29.7424091,73.1876021 29.9363292,73.7047224 C29.9784331,73.8169995 30,73.9359339 30,74.0558459 L30,87.1698449 C30,87.7221297 29.5522847,88.1698449 29,88.1698449 C28.880088,88.1698449 28.7611536,88.148278 28.6488766,88.1061741 L22,85.6128454 L22,75.6128454 Z" id="Combined-Shape"></path>
            </g>
        </g>
    </g>
</svg>