<?xml version="1.0" encoding="UTF-8"?>
<svg width="24px" height="25px" viewBox="0 0 24 25" version="1.1" xmlns="http://www.w3.org/2000/svg" xmlns:xlink="http://www.w3.org/1999/xlink">
    <!-- Generator: Sketch 52.4 (67378) - http://www.bohemiancoding.com/sketch -->
    <title>user (1) copy 3</title>
    <desc>Created with Sketch.</desc>
    <g id="Page-1" stroke="none" stroke-width="1" fill="none" fill-rule="evenodd">
        <g id="1.0.4首页-5屏" transform="translate(-29.000000, -610.000000)" fill="#0967D9" fill-rule="nonzero">
            <g id="Group-6" transform="translate(16.000000, 425.000000)">
                <g id="user-(1)-copy-3" transform="translate(13.000000, 185.000000)">
                    <g id="客服-(1)">
                        <path d="M12.1115683,19.7212338 C12.2324389,19.7212338 12.3555189,19.713765 12.479307,19.6988561 C13.6665689,19.5549179 14.6747485,18.7166138 15.0469062,17.5613308 C15.0749214,17.4748248 15.0343858,17.3823381 14.9525779,17.3443075 C14.8715066,17.3062769 14.7734958,17.3390994 14.7278046,17.4166486 C14.7233856,17.4241174 14.2517158,18.1938005 12.4152034,18.4443903 C12.14032,18.4816769 11.8728016,18.5010785 11.6192766,18.5010785 C10.332531,18.5003345 9.75916792,18.0103437 9.75401243,18.005851 C9.68917235,17.9476747 9.59039673,17.9461867 9.52408368,18.0028749 C9.4570341,18.0595631 9.44153935,18.1580019 9.48723051,18.2333477 C10.0473367,19.150689 11.052542,19.7212338 12.1115683,19.7212338 Z M21.9862395,8.22366177 C21.9700082,8.22366177 21.9552783,8.22663784 21.9398118,8.22663784 C20.8638177,3.52051672 16.7522655,0.00994119128 11.8226915,0.00994119128 C6.75751701,0.00994119128 2.55163648,3.71444698 1.61934433,8.61521376 C0.712886256,8.78004161 0.0230716401,9.58477922 0.0230716401,10.5580933 L0.0230716401,14.4535247 C0.0230716401,15.5453947 0.889758865,16.4306862 1.95983264,16.4306862 C2.5634204,16.4306862 3.09624781,16.1428098 3.45072958,15.7005218 C4.30704919,17.9886241 6.05064966,19.833723 8.2570253,20.8070658 C8.26232241,20.7954477 8.30410447,20.7134344 8.35429957,20.6480756 C8.38911322,20.6027479 8.42794929,20.5655186 8.46137492,20.5655186 C8.4960186,20.5655186 8.52771632,20.5781955 8.55496673,20.5975971 C8.04423424,20.2134852 6.19962037,18.2392998 5.80018394,15.4842424 C5.6247843,14.2715273 6.52387743,13.0812185 7.57111978,12.8843121 C9.2521463,12.5680773 10.9243349,12.2078598 12.6053614,11.8976057 C13.6739622,11.7006994 14.4043124,11.1085211 14.850913,10.1225587 C14.9555522,9.89208585 15.1066475,9.42596071 15.1759349,8.75397248 C15.1943473,8.65404561 15.2754186,8.5772118 15.3793497,8.5772118 C15.4486371,8.5772118 15.5075852,8.61301035 15.5466479,8.66446183 L15.5930755,8.63538803 C16.2556114,9.60718551 17.5696357,11.7588757 17.7582923,14.0276623 C17.9749641,16.6216405 17.8540936,18.3981756 15.8886092,20.2157459 C15.8863997,20.217978 15.8834537,20.2209541 15.8805077,20.2232147 C15.853229,20.2530325 15.8370261,20.2918357 15.8370261,20.3343304 C15.8370261,20.3902746 15.8665143,20.438006 15.9092595,20.4670798 C15.9254624,20.4738045 15.9416937,20.4827327 15.9578966,20.4894574 C15.9711536,20.4924335 15.983674,20.4969262 15.9969593,20.4969262 C16.0102446,20.4969262 16.0220285,20.4924621 16.0338125,20.4894574 C16.0618277,20.4745485 16.0883416,20.457379 16.1156203,20.4424701 C18.1032279,19.3364065 19.6280037,17.4890183 20.3325483,15.2672191 C20.6177427,15.6953137 21.0643432,16.0033357 21.5831772,16.1107313 C20.7511336,19.9338216 17.3758237,22.3264008 13.1942475,22.689623 C12.9436685,22.0616461 12.3268238,21.6156379 11.6023938,21.6156379 C10.6561366,21.6156379 9.88893309,22.3726442 9.88893309,23.3056671 C9.88893309,24.23869 10.6561082,24.9949522 11.6023938,24.9949522 C12.36515,24.9949522 13.004118,24.4997246 13.2259452,23.8195522 C18.0663464,23.4220195 21.9464969,20.5155552 22.7564456,15.9996157 C23.4720376,15.6975457 23.9746402,14.9882709 23.9746402,14.1604116 L23.9746402,10.2187369 C23.9745836,9.11716605 23.0843001,8.22366177 21.9862395,8.22366177 Z M20.2005454,9.35582301 C18.9381325,5.90119167 15.6667253,3.43326669 11.8182725,3.43326669 C7.98602264,3.43326669 4.72642771,5.88030201 3.45220257,9.3125557 C3.38883549,9.23423386 3.31439261,9.16712947 3.24142275,9.09925246 C3.96290674,4.9166887 7.52616515,1.73651286 11.8226915,1.73651286 C16.0985959,1.73651286 19.6507785,4.88535422 20.3958588,9.03884421 C20.3221524,9.13879969 20.254338,9.2432193 20.2005454,9.35582301 Z" id="Shape"></path>
                    </g>
                </g>
            </g>
        </g>
    </g>
</svg>