<svg xmlns="http://www.w3.org/2000/svg" xmlns:xlink="http://www.w3.org/1999/xlink" width="16" height="16" viewBox="0 0 16 16">
    <defs>
        <rect id="a" width="7" height="7" y="2" rx="2"/>
        <rect id="b" width="7" height="7" y="10" rx="2"/>
        <rect id="c" width="7" height="7" x="8" y="10" rx="2"/>
        <rect id="d" width="7" height="7" x="8" y="2" rx="2"/>
        <rect id="e" width="5" height="5" x="9.036" y="3.036" rx="1"/>
    </defs>
    <g fill="none" fill-rule="evenodd">
        <g transform="translate(0 -1)">
            <use fill="#FFF" xlink:href="#a"/>
            <rect width="6" height="6" x=".5" y="2.5" stroke="#704FAD" rx="2"/>
        </g>
        <g transform="translate(0 -1)">
            <use fill="#FFF" xlink:href="#b"/>
            <rect width="6" height="6" x=".5" y="10.5" stroke="#704FAD" rx="2"/>
        </g>
        <g transform="translate(0 -1)">
            <use fill="#FFF" xlink:href="#c"/>
            <rect width="6" height="6" x="8.5" y="10.5" stroke="#704FAD" rx="2"/>
        </g>
        <g transform="rotate(-45 10.293 5)">
            <use fill="#FFF" xlink:href="#d"/>
            <rect width="6" height="6" x="8.5" y="2.5" stroke="#704FAD" rx="2"/>
        </g>
        <g transform="rotate(-45 10.328 5.036)">
            <use fill="#9795E3" xlink:href="#e"/>
            <rect width="4" height="4" x="9.536" y="3.536" stroke="#FFF" rx="1"/>
        </g>
    </g>
</svg>
