<svg xmlns="http://www.w3.org/2000/svg" xmlns:xlink="http://www.w3.org/1999/xlink" width="16" height="16" viewBox="0 0 16 16">
    <defs>
        <path id="a" d="M3.45 8.255a2.54 2.54 0 0 0 1.669-.63l.317-.278a.45.45 0 0 1 .594 0l.317.277c.457.4 1.046.622 1.66.626a2.533 2.533 0 0 0 1.645-.627l.317-.279a.45.45 0 0 1 .595 0l.317.278c.46.404 1.055.626 1.675.626.466-.002.875-.098 1.214-.283a2.544 2.544 0 0 0 1.211-2.986c-.058-.158-.812-2.052-1.31-3.3-.164-.475-.623-.77-1.178-.77h-8.95c-.553 0-.96.26-1.117.714a2.564 2.564 0 0 0-1.52 4.118c0 .933.51 1.79 1.33 2.234.358.19.759.28 1.213.28z"/>
    </defs>
    <g fill="none" fill-rule="evenodd">
        <path fill="#704FAD" fill-rule="nonzero" d="M1.83 9.78A3.457 3.457 0 0 1 .003 6.742c0-.355.056-.709.164-1.051.019-.053.138-.342 1.411-3.377.142-.4.4-.733.747-.962a2.199 2.199 0 0 1 1.217-.344h8.951c.941.002 1.731.53 2.017 1.346 1.13 2.83 1.296 3.26 1.327 3.347a3.445 3.445 0 0 1-1.635 4.054c-.472.258-1.025.391-1.644.394a3.44 3.44 0 0 1-2.272-.85 3.624 3.624 0 0 1-2.277.852 3.455 3.455 0 0 1-2.256-.85 3.628 3.628 0 0 1-2.303.855c-.608 0-1.153-.127-1.622-.376zm10.523-3.953H3.647a.45.45 0 0 1 0-.901h8.706a.45.45 0 0 1 0 .9zm-9.47 9.688a1.846 1.846 0 0 1-1.844-1.843l-.004-2.914a.45.45 0 0 1 .9-.001l.005 2.915c0 .52.423.942.943.942l10.24-.007a.946.946 0 0 0 .941-.945v-2.967a.45.45 0 0 1 .9 0l.001 2.967a1.848 1.848 0 0 1-1.841 1.846l-10.24.007z"/>
        <g transform="translate(0 1)">
            <use fill="#9795E3" xlink:href="#a"/>
            <path stroke="#FFF" d="M3.45 7.755h-.002a2.04 2.04 0 0 0 1.34-.505l.318-.279a.95.95 0 0 1 1.253-.001l.317.277c.367.32.84.5 1.326.503a2.033 2.033 0 0 0 1.32-.503l.318-.278a.95.95 0 0 1 1.253 0l.318.277c.369.324.846.502 1.342.502.387-.002.714-.078.977-.222a2.045 2.045 0 0 0 .983-2.374c-.048-.129-.655-1.655-1.315-3.31-.09-.262-.352-.433-.705-.433h-8.95c-.35 0-.56.135-.645.377-.01.03-.01.03-.022.058L1.5 5.126a2.04 2.04 0 0 0 .97 2.407c.28.149.6.222.98.222z"/>
        </g>
    </g>
</svg>
