<svg xmlns="http://www.w3.org/2000/svg" xmlns:xlink="http://www.w3.org/1999/xlink" width="16" height="16" viewBox="0 0 16 16">
    <defs>
        <path id="a" d="M12.684 13.748c-1.057.865-2.676 1.322-4.684 1.322s-3.626-.458-4.683-1.323C2.467 13.05 2 12.099 2 11.064 2 8.05 4.027 5.836 6.035 4.98a.498.498 0 0 0 .292-.43.511.511 0 0 0-.235-.47c-.548-.334-.862-.785-.862-1.24 0-.424.262-.842.737-1.178C6.508 1.28 7.23 1.07 8 1.07c.771 0 1.493.21 2.033.591.476.336.737.754.737 1.178 0 .453-.312.903-.856 1.236a.511.511 0 0 0-.234.47c.012.193.126.361.292.431C11.977 5.823 14 8.035 14 11.066c0 1.035-.467 1.987-1.316 2.682z"/>
    </defs>
    <g fill="none" fill-rule="evenodd">
        <path stroke="#704FAD" d="M13.6 6.92a7.71 7.71 0 0 0-2.54-2.141l-.607-.318.487-.481c.37-.365.56-.783.56-1.21 0-.302-.09-.593-.275-.875a2.531 2.531 0 0 0-.75-.722C9.815.742 8.934.5 8 .5c-.934 0-1.815.242-2.475.673a2.54 2.54 0 0 0-.75.722 1.573 1.573 0 0 0-.275.874c0 .43.192.85.566 1.216l.49.48-.607.32a7.79 7.79 0 0 0-2.546 2.154C1.483 8.15 1 9.55 1 10.994c0 1.195.571 2.285 1.625 3.081.587.444 1.317.792 2.172 1.032.928.26 2.006.393 3.203.393s2.276-.133 3.204-.393c.855-.24 1.585-.587 2.172-1.03C14.429 13.28 15 12.19 15 10.997c0-1.462-.483-2.87-1.4-4.078z"/>
        <use fill="#9795E3" xlink:href="#a"/>
        <path stroke="#FFF" stroke-width=".871" d="M12.408 13.41c.75-.613 1.157-1.442 1.157-2.344 0-2.566-1.615-4.782-3.762-5.689a.932.932 0 0 1-.558-.803.946.946 0 0 1 .442-.87c.425-.26.647-.582.647-.865 0-.268-.184-.562-.553-.822C9.32 1.69 8.685 1.505 8 1.505c-.685 0-1.319.185-1.781.512-.369.26-.553.555-.553.822 0 .285.224.607.652.867.297.18.465.518.443.87a.933.933 0 0 1-.555.804c-2.152.917-3.77 3.133-3.77 5.684 0 .902.407 1.732 1.157 2.346.97.794 2.492 1.225 4.407 1.225s3.439-.43 4.408-1.224z"/>
        <path fill="#FFF" fill-rule="nonzero" d="M10.167 9.711a.433.433 0 1 0 0-.866h-1.12l.994-.994a.433.433 0 1 0-.612-.613L8 8.664 6.56 7.216a.433.433 0 0 0-.615.612l1.011 1.017H5.833a.433.433 0 1 0 0 .866h1.734v.867H5.833a.433.433 0 1 0 0 .867h1.734v1.3a.433.433 0 1 0 .866 0v-1.3h1.734a.433.433 0 1 0 0-.867H8.433V9.71h1.734z"/>
    </g>
</svg>
