<svg xmlns="http://www.w3.org/2000/svg" xmlns:xlink="http://www.w3.org/1999/xlink" width="270" height="270" viewBox="0 0 270 270">
    <defs>
        <circle id="b" cx="135" cy="134" r="119"/>
        <filter id="a" width="117.2%" height="117.2%" x="-8.6%" y="-8.2%" filterUnits="objectBoundingBox">
            <feMorphology in="SourceAlpha" operator="dilate" radius="8" result="shadowSpreadOuter1"/>
            <feOffset dy="1" in="shadowSpreadOuter1" result="shadowOffsetOuter1"/>
            <feGaussianBlur in="shadowOffsetOuter1" result="shadowBlurOuter1" stdDeviation="4"/>
            <feComposite in="shadowBlurOuter1" in2="SourceAlpha" operator="out" result="shadowBlurOuter1"/>
            <feColorMatrix in="shadowBlurOuter1" values="0 0 0 0 0 0 0 0 0 0 0 0 0 0 0 0 0 0 0.05 0"/>
        </filter>
        <filter id="c" width="125.7%" height="149.4%" x="-15.7%" y="-20.2%" filterUnits="objectBoundingBox">
            <feOffset dy="4" in="SourceAlpha" result="shadowOffsetOuter1"/>
            <feGaussianBlur in="shadowOffsetOuter1" result="shadowBlurOuter1" stdDeviation="4"/>
            <feColorMatrix in="shadowBlurOuter1" result="shadowMatrixOuter1" values="0 0 0 0 0 0 0 0 0 0 0 0 0 0 0 0 0 0 0.1 0"/>
            <feMerge>
                <feMergeNode in="shadowMatrixOuter1"/>
                <feMergeNode in="SourceGraphic"/>
            </feMerge>
        </filter>
    </defs>
    <g fill="none" fill-rule="evenodd">
        <g>
            <use fill="#000" filter="url(#a)" xlink:href="#b"/>
            <use fill="#6237A0" xlink:href="#b"/>
            <circle cx="135" cy="134" r="123" stroke="#FFF" stroke-opacity=".1" stroke-width="8"/>
        </g>
        <g filter="url(#c)" transform="translate(92 74)">
            <path stroke="#FFF" stroke-linecap="round" stroke-width="15.038" d="M0 0h44.36v89H0"/>
            <rect width="37.594" height="13.462" x="6.767" y="15.706" fill="#F8E71C" rx="6.731"/>
            <rect width="37.594" height="13.462" x="6.767" y="32.16" fill="#F8E71C" rx="6.731"/>
            <rect width="37.594" height="13.462" x="6.767" y="48.613" fill="#F8E71C" rx="6.731"/>
            <rect width="23.308" height="13.462" x="14.286" y="65.067" fill="#F8E71C" rx="6.731"/>
            <path fill="#F8E71C" d="M54.887 65.16V23.184h40.747a3.76 3.76 0 0 1 3.76 3.76v39.667a3.76 3.76 0 0 1-3.76 3.759h-28.21c-2.866.77-5.212 2.356-7.037 4.757h-1.74a3.76 3.76 0 0 1-3.76-3.76V65.16z"/>
            <path fill="#F8E71C" stroke="#6237A0" stroke-linecap="round" stroke-width="3.008" d="M79.447 53.55h-8.99c-8.816-1.78-14.2-5.706-16.156-11.776-1.955-6.071-3.906-14.181-5.85-24.33h-7.853l-7.2 8.52c-5.816 7.208-11.686 9.442-17.609 6.703 1.943-4.697 4.905-12.242 8.885-22.633C26.518 5.097 30.72 2.21 37.28 1.375c6.561-.836 15.419-.836 26.573 0l15.594 20.82"/>
            <path fill="#F8E71C" d="M126.565 45.107V39a2 2 0 0 1 3.414-1.414l8.607 8.606a2 2 0 0 1 0 2.829l-8.607 8.606a2 2 0 0 1-3.414-1.414v-6.106H109a2 2 0 0 1-2-2v-1a2 2 0 0 1 2-2h17.565z"/>
        </g>
    </g>
</svg>
