<svg xmlns="http://www.w3.org/2000/svg" xmlns:xlink="http://www.w3.org/1999/xlink" width="60" height="60" viewBox="0 0 60 60">
    <defs>
        <path id="a" d="M2.12 32.8c.602-4.158 3.051-7.874 6.65-10.036l7.032 6.802 7.034-6.802c3.597 2.162 6.047 5.878 6.65 10.036H2.118z"/>
    </defs>
    <g fill="none" fill-rule="evenodd" transform="translate(6 10)">
        <rect width="17" height="14" x="25" y="3" fill="#CEB0FF" rx=".909"/>
        <path fill="#F18793" d="M25 1.667h16.667a1.67 1.67 0 0 1 1.666 1.666H45A3.332 3.332 0 0 0 41.667 0H25a3.332 3.332 0 0 0-3.333 3.333V4.5a.833.833 0 0 0 1.667 0V3.333A1.67 1.67 0 0 1 25 1.667z"/>
        <path fill="#F18793" d="M41.667 18.333h-5.555l-4.445 3.334v-3.334h-5.5a.833.833 0 1 0 0 1.667H30v5l6.667-5h5A3.332 3.332 0 0 0 45 16.667V3.333a.833.833 0 0 0-1.667 0v13.334a1.67 1.67 0 0 1-1.666 1.666z"/>
        <path fill="#704FAD" d="M15.802 32.8l-6.696-6.476A16 16 0 0 0 0 40.8h31.605c0-6.41-3.732-11.922-9.104-14.476L15.802 32.8zm0-6c4.364 0 7.902-3.582 7.902-8v-4h-1.975v4c0 3.308-2.66 6-5.926 6-3.268 0-5.926-2.692-5.926-6v-4h5.926c4.363 0 7.9-3.582 7.9-8H11.853c-2.183 0-3.95 1.79-3.95 4v8c0 4.418 3.537 8 7.9 8zm-5.925-16c0-1.102.887-2 1.975-2h9.539c-.816 2.328-3.013 4-5.588 4H9.877v-2z"/>
        <g transform="translate(0 6)">
            <use fill="#CEB0FF" xlink:href="#a"/>
            <path stroke="#FFF" stroke-width="1.077" d="M2.757 32.261h26.091a13.567 13.567 0 0 0-5.94-8.818l-7.106 6.872-7.104-6.872a13.563 13.563 0 0 0-5.941 8.818z"/>
        </g>
        <path fill="#FFF" d="M38.333 7.5a.833.833 0 0 0-.833-.833h-8.333a.833.833 0 1 0 0 1.667H37.5c.46 0 .833-.374.833-.834zM38.333 12.5a.833.833 0 0 0-.833-.833h-8.333a.833.833 0 1 0 0 1.667H37.5c.46 0 .833-.374.833-.834z"/>
    </g>
</svg>
