<svg xmlns="http://www.w3.org/2000/svg" width="80" height="60" viewBox="0 0 80 60">
    <g fill="#FD5F72" fill-rule="evenodd">
        <path fill-rule="nonzero" d="M10.664 56.732l.868-4.536H9.345l-1.166 5.919h2.067l.9-1.383h-.482zm10.397-8.035l.506-2.01h-4.495l.654-2.592h3.978l.98-1.836h-7.303l-3.42 13.566h-.466l-.577 2.29h3.273l2.375-9.418h.895l-2.375 9.418h2.825l2.375-9.418h.775zm-8.71 2.916l.463-1.836H9.696l.305-1.21h3.204l.457-1.815h-1.446l1.008-1.814h.81l.457-1.815h-2.773l.267-1.058H8.558l-.267 1.058H5.518l-.458 1.815h.792l.111 1.814H4.517l-.458 1.815h3.204l-.305 1.21H3.84l-.463 1.836h3.118l-1.242 4.925h-.5l1.336-4.342H3.902l-1.42 4.536H2l.203 1.383H4.27l.444-1.49.141 1.49h2.739l1.64-6.502h3.117zm-3.829-6.675h2.05l-1.009 1.814h-.947l-.094-1.814zm27.013 1.814h-8.836l.566-2.246h8.836l-1.056 4.19h3.427l1.553-6.156H24.334l-1.553 6.157h11.402l1.352-1.945zm-4.736 3.003l-2.151 8.533h4.185l1.254-1.966h-1.86l1.165-4.623h1.86l-1.661 6.589h3.1l2.152-8.533h-8.044zm-8.922 0l-2.152 8.533h4.186l1.27-1.966h-1.877l1.166-4.623h1.877l-1.661 6.589h3.083l2.151-8.533h-8.043zm27.368-2.052h7.492l.523-2.074h-7.492L50.683 42h-3.135l-3.524 13.976h-5.701l-.48 1.901h17.121l.48-1.901h-8.286l2.087-8.273zm19.965-5.141l-1.928 7.647h3.703l1.183-1.685H70.29l1.03-4.083h1.877l-1.454 5.768h2.824l1.929-7.647H69.21zm-5.85 2.505h1.257l-.888 3.521h-.69l.053 1.707h3.048l1.792-7.107h-3.755l.508-1.123h-2.687l-.49 1.123h-1.671l-.474 1.88h1.326l-1.546 3.607h-.534l-.144 1.663h2.566l2.328-5.27zm8.94 9.354h-3.204l.267 3.586h2.945l.708-1.577h-.551l-.165-2.01zm-4.408-3.63h-3.255l-.31 1.232H57.47l-.479 1.901h6.855l-1.067 4.234h3.255l1.068-4.234h6.872l.48-1.9h-6.873l.31-1.232zM57.24 56.43h-.569l-.087 1.577h2.945l2.075-3.586H58.4l-1.161 2.009z"/>
        <path d="M43.93 5.274a3.323 3.323 0 0 1 4.54 1.205l7.733 13.393a3.323 3.323 0 0 1-1.227 4.534L31.9 37.73a3.323 3.323 0 0 1-4.541-1.204l-7.733-13.393a3.322 3.322 0 0 1 1.228-4.536l1.923-1.11 4.565-10.95a2.21 2.21 0 0 1-.328-.424 2.215 2.215 0 0 1 .819-3.023 2.214 2.214 0 0 1 3.026.803c.198.343.282.72.284 1.091l10.863 1.402 1.923-1.11zM28.043 7.022l-4.304 9.91L41.045 6.94 30.995 5.79c-.177.456-.495.86-.953 1.124a2.214 2.214 0 0 1-1.999.107zm6.36 20.68l-4.064-7.038-2.06 1.19 2.248 3.893-4.912-2.356-2.04 1.179 4.063 7.038 2.055-1.187-2.23-3.864 4.88 2.335 2.06-1.19zm7.412-4.28l-.92-1.593-3.774 2.179-.801-1.388 3.402-1.964-.83-1.436-3.401 1.965-.646-1.12 3.667-2.117-.867-1.502-5.858 3.382 4.063 7.038 5.965-3.443zM50.6 18.35l-2.504-7.938-2.066 1.192 1.524 4.367-3.369-3.301-2.068 1.194 1.18 4.572-3.022-3.509-2.076 1.199 5.637 6.13 2.144-1.238-1.323-5.145 3.8 3.715L50.6 18.35z"/>
    </g>
</svg>
