<svg xmlns="http://www.w3.org/2000/svg" width="24" height="24" viewBox="0 0 24 24">
    <g fill="none" fill-rule="evenodd">
        <rect width="24" height="24" fill="#9795E3" rx="12"/>
        <g fill="#FFF">
            <path d="M17 15.533V16c0 .55-.45 1-1 1H8c-.55 0-1-.45-1-1v-.467c0-1.216 1.417-1.95 2.75-2.533a.499.499 0 0 0 .133-.067.31.31 0 0 1 .317.017c.533.35 1.15.55 1.8.55.65 0 1.267-.2 1.8-.533a.31.31 0 0 1 .317-.017c.05.017.083.033.133.067 1.333.566 2.75 1.3 2.75 2.516M12 7c1.372 0 2.483 1.231 2.483 2.75S13.372 12.5 12 12.5s-2.483-1.231-2.483-2.75S10.628 7 12 7"/>
        </g>
    </g>
</svg>
