<svg xmlns="http://www.w3.org/2000/svg" xmlns:xlink="http://www.w3.org/1999/xlink" width="50" height="50" viewBox="0 0 50 50">
    <defs>
        <path id="a" d="M7.645 0h18.157a7.645 7.645 0 0 1 7.645 7.645v28.946H0V7.645A7.645 7.645 0 0 1 7.645 0z"/>
        <path id="b" d="M7.154 19.886H27.09v16.705H7.154z"/>
        <path id="c" d="M14.338 26.25h1v3.977h-1z"/>
        <path id="d" d="M19.12 26.25h1v3.977h-1z"/>
    </defs>
    <g fill="none" fill-rule="evenodd" opacity=".3">
        <g transform="translate(11.556 5)">
            <use fill="#FFF" xlink:href="#a"/>
            <path stroke="#BBB" stroke-width="1.911" d="M.956 35.635H32.49V7.645a6.69 6.69 0 0 0-6.689-6.69H7.645a6.69 6.69 0 0 0-6.69 6.69v27.99z"/>
        </g>
        <g transform="translate(11.556 5)">
            <use fill="#E1E1E1" xlink:href="#b"/>
            <path stroke="#BBB" stroke-width="1.911" d="M8.109 20.842h18.025v14.793H8.109z"/>
        </g>
        <path stroke="#BBB" stroke-linecap="square" stroke-width="1.911" d="M28.678 26v14.398"/>
        <path fill="#FFF" stroke="#BBB" stroke-width="1.911" d="M12.353 13.53a3.184 3.184 0 0 0 3.185 3.182 3.184 3.184 0 0 0 3.186-3.182m6.37 0a3.184 3.184 0 0 1-3.185 3.182 3.184 3.184 0 0 1-3.185-3.182m-6.371 0V9.645a3.823 3.823 0 0 1 3.822-3.823h24.21a3.823 3.823 0 0 1 3.822 3.823v3.885a3.184 3.184 0 0 1-3.185 3.182 3.184 3.184 0 0 1-3.186-3.182 3.184 3.184 0 0 1-3.185 3.182 3.184 3.184 0 0 1-3.186-3.182 3.184 3.184 0 0 1-3.185 3.182 3.184 3.184 0 0 1-3.186-3.182"/>
        <g transform="translate(11.556 5)">
            <use fill="#465E75" xlink:href="#c"/>
            <path stroke="#BBB" stroke-width=".956" d="M14.816 26.728h1v3.022h-1z"/>
        </g>
        <g transform="translate(11.556 5)">
            <use fill="#465E75" xlink:href="#d"/>
            <path stroke="#BBB" stroke-width=".956" d="M19.598 26.728h1v3.022h-1z"/>
        </g>
        <g stroke="#FFF" transform="translate(2 20.114)">
            <path fill="#D2D5D7" stroke-width="1.911" d="M9.556 24.818c1.056 0 9.557-10 9.557-15.273C19.113 4.274 14.834 0 9.556 0 4.28 0 0 4.274 0 9.545c0 5.272 8.501 15.273 9.556 15.273z"/>
            <ellipse cx="9.556" cy="9.545" fill="#FFF" stroke-width=".956" rx="4.778" ry="4.773"/>
        </g>
    </g>
</svg>
