<svg xmlns="http://www.w3.org/2000/svg" xmlns:xlink="http://www.w3.org/1999/xlink" width="375" height="603" viewBox="0 0 375 603">
    <defs>
        <linearGradient id="b" x1="107.492%" x2="-7.836%" y1="-7.923%" y2="107.923%">
            <stop offset="0%" stop-color="#3A3897"/>
            <stop offset="100%" stop-color="#A3A1FF"/>
        </linearGradient>
        <linearGradient id="c" x1="106.547%" x2="-19.563%" y1="-7.278%" y2="119.505%">
            <stop offset="0%" stop-color="#662D8C"/>
            <stop offset="100%" stop-color="#ED1E79"/>
        </linearGradient>
        <path id="a" d="M0 0h375v603H0z"/>
        <linearGradient id="d" x1="43.907%" x2="56.093%" y1=".373%" y2="99.627%">
            <stop offset="0%" stop-color="#FFF"/>
            <stop offset="100%" stop-color="#FFF" stop-opacity="0"/>
        </linearGradient>
        <linearGradient id="f" x1="50%" x2="50%" y1="0%" y2="100%">
            <stop offset="0%" stop-color="#FFF"/>
            <stop offset="100%" stop-color="#FFF" stop-opacity="0"/>
        </linearGradient>
    </defs>
    <g fill="none" fill-rule="evenodd">
        <mask id="e" fill="#fff">
            <use xlink:href="#a"/>
        </mask>
        <use fill="url(#b)" xlink:href="#a"/>
        <use fill="url(#c)" fill-opacity=".3" xlink:href="#a"/>
        <path fill="url(#d)" fill-opacity=".04" d="M-10-189s1282.746 91.417 935.312 504.207C577.88 727.997-10-189-10-189z" mask="url(#e)"/>
        <path fill="url(#f)" fill-opacity=".15" d="M683-256.625S-680.795-669.884-331.89-36.04C17.015 597.803 683-256.625 683-256.625z" mask="url(#e)"/>
        <g mask="url(#e)" opacity=".7">
            <path fill="#6145A3" d="M-664.24 641.001c79.84-80.291 236.617-98.828 470.33-55.61 350.571 64.829 406.069-78.683 626.158-78.683 220.09 0 354.717 117.668 604.12 117.668C1285.77 624.376 1218.72 466 1470.44 466c167.814 0 158.97 101-26.533 303H-691l26.76-127.999z" style="mix-blend-mode:overlay"/>
            <path fill="#9443BF" d="M978.316 641.001c-73.644-80.291-218.255-98.828-433.833-55.61-323.368 64.829-374.56-78.683-577.57-78.683-203.01 0-327.191 117.668-557.241 117.668S-758.532 466-990.718 466c-154.792 0-146.634 101 24.474 303H1003l-24.684-127.999z" style="mix-blend-mode:overlay"/>
            <path fill="#893FC6" d="M-735.33 634.899c64.648-69.692 191.595-85.782 380.84-48.268 283.869 56.27 328.807-68.297 507.02-68.297 178.214 0 287.226 102.135 489.176 102.135S789.364 483 993.189 483c135.884 0 128.723 87.667-21.485 263H-757l21.67-111.101z" style="mix-blend-mode:overlay"/>
        </g>
    </g>
</svg>
