<svg xmlns="http://www.w3.org/2000/svg" width="20" height="21" viewBox="0 0 20 21">
    <path fill="#5CC185" fill-rule="nonzero" d="M18.883 19.28l-4.108-4.104a7.853 7.853 0 0 0 2.023-5.272 7.853 7.853 0 0 0-2.313-5.577 7.877 7.877 0 0 0-5.583-2.31 7.877 7.877 0 0 0-5.583 2.31 7.853 7.853 0 0 0-2.313 5.577 7.853 7.853 0 0 0 2.313 5.577 7.879 7.879 0 0 0 5.583 2.31 7.878 7.878 0 0 0 5.278-2.02l4.108 4.102a.421.421 0 0 0 .595-.594zm-10.02-2.407a6.954 6.954 0 0 1-4.95-2.05 6.954 6.954 0 0 1-2.05-4.95c0-1.87.728-3.628 2.05-4.95a6.954 6.954 0 0 1 4.95-2.05c1.87 0 3.628.728 4.95 2.05a6.954 6.954 0 0 1 2.05 4.95c0 1.87-.728 3.628-2.05 4.95a6.954 6.954 0 0 1-4.95 2.05z"/>
</svg>
