<svg xmlns="http://www.w3.org/2000/svg" width="20" height="20" viewBox="0 0 20 20">
    <g fill="#F2CF9A" fill-rule="nonzero">
        <path d="M10 19.996a9.928 9.928 0 0 1-7.066-2.927 9.928 9.928 0 0 1-2.928-7.067c0-2.67 1.04-5.179 2.928-7.066A9.928 9.928 0 0 1 10 .009c2.67 0 5.18 1.04 7.067 2.927 3.896 3.896 3.896 10.237 0 14.133A9.928 9.928 0 0 1 10 19.996zm0-18.194c-2.19 0-4.25.853-5.799 2.402A8.147 8.147 0 0 0 1.8 10.002c0 2.19.853 4.25 2.402 5.8a8.148 8.148 0 0 0 5.8 2.401c2.19 0 4.249-.853 5.798-2.402 3.197-3.197 3.197-8.4 0-11.597A8.148 8.148 0 0 0 10 1.802z"/>
        <path d="M10.011 11.29a.896.896 0 0 1-.896-.896V5.402a.896.896 0 1 1 1.793 0v4.992a.896.896 0 0 1-.897.896z"/>
        <path d="M7.353 14.144a.896.896 0 0 1-.634-1.53l2.658-2.66a.896.896 0 1 1 1.268 1.268l-2.658 2.659a.893.893 0 0 1-.634.263z"/>
    </g>
</svg>
