<svg xmlns="http://www.w3.org/2000/svg" xmlns:xlink="http://www.w3.org/1999/xlink" width="82" height="82" viewBox="0 0 82 82">
    <defs>
        <path id="a" d="M0 0h82v82H0z"/>
        <path id="b" d="M25 22h33v36H25z"/>
        <path id="c" d="M35 19h14v6H35z"/>
        <path id="d" d="M28 46h27v8H28z"/>
    </defs>
    <g fill="none" fill-rule="evenodd">
        <use fill="#FFF" xlink:href="#a"/>
        <path stroke="#F0E5D4" d="M.5.5h81v81H.5z"/>
        <circle cx="34" cy="57" r="4" fill="#F0E5D4" stroke="#413122"/>
        <circle cx="49" cy="57" r="4" fill="#F0E5D4" stroke="#413122"/>
        <use fill="#F5F2EF" xlink:href="#b"/>
        <path stroke="#413122" d="M25.5 22.5h32v35h-32z"/>
        <use fill="#F0E5D4" xlink:href="#c"/>
        <path stroke="#413122" d="M35.5 19.5h13v5h-13z"/>
        <use fill="#FFF" xlink:href="#d"/>
        <path stroke="#413122" d="M28.5 46.5h26v7h-26zM43 46l7.5-7.5"/>
        <path stroke="#413122" stroke-linecap="square" d="M60.5 28.5v6M22.5 28.5v6"/>
        <path fill="#FFF" d="M29 36.9l9.9-9.9 3.536 3.536-9.9 9.899zM39 37.9l9.9-9.9 3.536 3.536-9.9 9.899z"/>
    </g>
</svg>
