<svg xmlns="http://www.w3.org/2000/svg" xmlns:xlink="http://www.w3.org/1999/xlink" width="50" height="50" viewBox="0 0 50 50">
    <defs>
        <circle id="b" cx="24" cy="24" r="24"/>
        <filter id="a" width="129.2%" height="129.2%" x="-14.6%" y="-10.4%" filterUnits="objectBoundingBox">
            <feOffset dy="2" in="SourceAlpha" result="shadowOffsetOuter1"/>
            <feGaussianBlur in="shadowOffsetOuter1" result="shadowBlurOuter1" stdDeviation="2"/>
            <feComposite in="shadowBlurOuter1" in2="SourceAlpha" operator="out" result="shadowBlurOuter1"/>
            <feColorMatrix in="shadowBlurOuter1" values="0 0 0 0 0 0 0 0 0 0 0 0 0 0 0 0 0 0 0.0536401721 0"/>
        </filter>
    </defs>
    <g fill="none" fill-rule="evenodd">
        <g transform="translate(1 1)">
            <use fill="#000" filter="url(#a)" xlink:href="#b"/>
            <use fill="#FFF" fill-opacity=".2" xlink:href="#b"/>
            <circle cx="24" cy="24" r="23.5" stroke="#FFF" stroke-opacity=".5"/>
        </g>
        <path fill="#FFF" d="M26.414 26l7.071-7.071a1 1 0 0 0-1.414-1.414L25 24.585l-7.071-7.07a1 1 0 0 0-1.414 1.414L23.585 26l-7.07 7.071a1 1 0 0 0 1.414 1.414L25 27.415l7.071 7.07a1 1 0 0 0 1.414-1.414L26.415 26z"/>
    </g>
</svg>
