<svg xmlns="http://www.w3.org/2000/svg" xmlns:xlink="http://www.w3.org/1999/xlink" width="95" height="95" viewBox="0 0 95 95">
    <defs>
        <path id="b" d="M21.07.905h20.245a4 4 0 0 1 3.481 2.03L51.1 14.07a4 4 0 0 1-.348 4.458l-7.78 9.797a4 4 0 0 1-6.61-.511L21.068.905z"/>
        <filter id="a" width="141.5%" height="140.5%" x="-23.9%" y="-20.3%" filterUnits="objectBoundingBox">
            <feOffset dx="-1" in="SourceAlpha" result="shadowOffsetOuter1"/>
            <feGaussianBlur in="shadowOffsetOuter1" result="shadowBlurOuter1" stdDeviation="2"/>
            <feColorMatrix in="shadowBlurOuter1" values="0 0 0 0 0.121568627 0 0 0 0 0.607843137 0 0 0 0 0.941176471 0 0 0 0.5 0"/>
        </filter>
        <path id="d" d="M19.946 1L42.12 7.7l2.874 21.474a4 4 0 0 1-3.627 4.516L28.08 34.815a4 4 0 0 1-4.306-3.485L19.946 1z"/>
        <filter id="c" width="150.8%" height="138.1%" x="-29.3%" y="-19%" filterUnits="objectBoundingBox">
            <feOffset dx="-1" in="SourceAlpha" result="shadowOffsetOuter1"/>
            <feGaussianBlur in="shadowOffsetOuter1" result="shadowBlurOuter1" stdDeviation="2"/>
            <feColorMatrix in="shadowBlurOuter1" values="0 0 0 0 0.121568627 0 0 0 0 0.607843137 0 0 0 0 0.941176471 0 0 0 0.5 0"/>
        </filter>
        <path id="f" d="M14.293 1.61L38.01.883l10.386 17.284a4 4 0 0 1-1.369 5.49L36.138 30.2a4 4 0 0 1-5.49-1.368L14.294 1.61z"/>
        <filter id="e" width="137.5%" height="143.5%" x="-21.6%" y="-21.7%" filterUnits="objectBoundingBox">
            <feOffset dx="-1" in="SourceAlpha" result="shadowOffsetOuter1"/>
            <feGaussianBlur in="shadowOffsetOuter1" result="shadowBlurOuter1" stdDeviation="2"/>
            <feColorMatrix in="shadowBlurOuter1" values="0 0 0 0 0.121568627 0 0 0 0 0.607843137 0 0 0 0 0.941176471 0 0 0 0.5 0"/>
        </filter>
    </defs>
    <g fill="none" fill-rule="evenodd">
        <path fill="#4C6175" d="M39.124 12.85L49.995 31.68l-11.856 7.01a4 4 0 0 1-3.458.295L27.18 36.13a4 4 0 0 1-2.562-4.092l.812-9.155a4 4 0 0 1 1.949-3.09l11.746-6.944z"/>
        <g transform="translate(18.095 12)">
            <use fill="#000" filter="url(#a)" xlink:href="#b"/>
            <use fill="#E6E6E6" xlink:href="#b"/>
        </g>
        <path fill="#4C6175" d="M23.001 77.993l1.295-22.073h13.782a4 4 0 0 1 3.518 2.097l4.458 8.24a4 4 0 0 1-.633 4.674l-5.6 5.832a4 4 0 0 1-2.885 1.23H23z"/>
        <g transform="rotate(-146 33.211 39.06)">
            <use fill="#000" filter="url(#c)" xlink:href="#d"/>
            <use fill="#E6E6E6" xlink:href="#d"/>
        </g>
        <g>
            <path fill="#4C6175" d="M86.024 58.72l-20.423 9.135-5.118-13.65a4 4 0 0 1 .456-3.679l5.065-7.327a4 4 0 0 1 4.56-1.518l7.793 2.608a4 4 0 0 1 2.405 2.21l5.262 12.22z"/>
            <g transform="rotate(121 34.51 50.396)">
                <use fill="#000" filter="url(#e)" xlink:href="#f"/>
                <use fill="#E6E6E6" xlink:href="#f"/>
            </g>
        </g>
    </g>
</svg>
