<svg xmlns="http://www.w3.org/2000/svg" xmlns:xlink="http://www.w3.org/1999/xlink" width="95" height="95" viewBox="0 0 95 95">
    <defs>
        <filter id="a" width="117.1%" height="121.9%" x="-8.5%" y="-7.8%" filterUnits="objectBoundingBox">
            <feOffset dy="2" in="SourceAlpha" result="shadowOffsetOuter1"/>
            <feGaussianBlur in="shadowOffsetOuter1" result="shadowBlurOuter1" stdDeviation="2"/>
            <feColorMatrix in="shadowBlurOuter1" result="shadowMatrixOuter1" values="0 0 0 0 0.121568627 0 0 0 0 0.607843137 0 0 0 0 0.941176471 0 0 0 0.5 0"/>
            <feMerge>
                <feMergeNode in="shadowMatrixOuter1"/>
                <feMergeNode in="SourceGraphic"/>
            </feMerge>
        </filter>
        <path id="b" d="M2 0h78a2 2 0 0 1 2 2v60a2 2 0 0 1-2 2H2a2 2 0 0 1-2-2V2a2 2 0 0 1 2-2z"/>
    </defs>
    <g fill="none" fill-rule="evenodd" filter="url(#a)" transform="translate(6 16)">
        <use fill="#4EB6DB" xlink:href="#b"/>
        <path stroke="#FFF" stroke-width="3" d="M2 1.5a.5.5 0 0 0-.5.5v60a.5.5 0 0 0 .5.5h78a.5.5 0 0 0 .5-.5V2a.5.5 0 0 0-.5-.5H2z"/>
        <path fill="#435C81" d="M34.88 27.041L67.413 61H3.023v-6.91l29.048-27.127a2 2 0 0 1 2.81.078z"/>
        <path fill="#435C81" d="M66.558 38.026l12.465 15.018v7.879H46.965l16.432-22.789a2 2 0 0 1 3.161-.108z"/>
        <circle cx="52.731" cy="19.731" r="6.731" fill="#F8D952"/>
    </g>
</svg>
