<svg xmlns="http://www.w3.org/2000/svg" width="45" height="45" viewBox="0 0 45 45">
    <g fill="none" fill-rule="evenodd" stroke="#5CC185">
        <path d="M8 16.5h3.5L37 9c1.333 0 2 .5 2 1.5v21c0 1.667-.667 2.5-2 2.5s-9.833-2.667-25.5-8H8a2 2 0 0 1-2-2v-5.5a2 2 0 0 1 2-2z"/>
        <path stroke-linecap="square" d="M9.5 17.5v8"/>
        <path stroke-linecap="round" d="M34.5 32.5V19.717m0-2.15V13.5M12.5 16.5v6"/>
        <path d="M12 26.5v5.085a2 2 0 0 0 1.334 1.886l5.667 2a2 2 0 0 0 2.353-.812L24 30.5l-12-4z"/>
        <path stroke-linecap="round" d="M12.5 30.5l6 2"/>
    </g>
</svg>
