<svg xmlns="http://www.w3.org/2000/svg" width="18" height="18" viewBox="0 0 18 18">
    <path fill="#888" fill-rule="nonzero" d="M17.883 17.28l-4.108-4.104a7.853 7.853 0 0 0 2.023-5.272 7.853 7.853 0 0 0-2.313-5.577A7.877 7.877 0 0 0 7.902.017a7.877 7.877 0 0 0-5.583 2.31A7.853 7.853 0 0 0 .006 7.904a7.853 7.853 0 0 0 2.313 5.577 7.879 7.879 0 0 0 5.583 2.31 7.878 7.878 0 0 0 5.278-2.02l4.108 4.102a.421.421 0 0 0 .595-.594zm-9.981-2.345a6.997 6.997 0 0 1-4.977-2.06A6.981 6.981 0 0 1 .863 7.905a6.98 6.98 0 0 1 2.062-4.972A6.997 6.997 0 0 1 7.902.873c1.88 0 3.648.731 4.977 2.06a6.98 6.98 0 0 1 2.062 4.971 6.981 6.981 0 0 1-2.062 4.972 6.997 6.997 0 0 1-4.977 2.059z"/>
</svg>
