<svg xmlns="http://www.w3.org/2000/svg" width="16" height="16" viewBox="0 0 16 16">
    <g fill="none" fill-rule="evenodd" stroke="#FFF" transform="translate(1 1)">
        <path d="M12.195 12.29a8.932 8.932 0 0 1-.335.18c-.392-.17-.392-.17-.392-.213-.04-.06-.04-.06-.069-.109l-.142-.246-.03-.05-.062-.1c0 .001-.021-.027-.07-.076-.1-.1-.237-.204-.42-.305-.493-.272-1.189-.455-2.104-.496-.501 0-.82-.349-.862-.85a4.16 4.16 0 0 1-.024-.365c0-.074.003-.138.014-.2.037-.203.115-.366.353-.43a5.95 5.95 0 0 0 .859-.528c.087-.055.231-.162.373-.298.195-.188.3-.36.31-.55l.058-.308a41.557 41.557 0 0 0 .188-1.104c.078-.511.123-.907.123-1.117 0-1.83-.875-2.875-2.904-2.875-2.051 0-2.903 1.027-2.903 2.875 0 .214.044.606.12 1.108a29.13 29.13 0 0 0 .19 1.115c.027.141.047.247.068.402 0 .102.105.274.299.458.14.134.283.238.393.306l.013.008c.075.052.17.109.282.172.065.037.134.074.219.119l.201.106c.075.04.126.069.17.095.04.026.04.026.093.066.075.044.075.044.197.381.002.04.005.199.01.515 0 .513-.337.899-.845.899-.927.037-1.62.22-2.118.496-.305.17-.458.32-.506.4a1.242 1.242 0 0 0-.083.185c-.028.075-.047.13-.09.258l-.035.103c.026.016.026.016-.338.31-.18-.086-.313-.15-.41-.2l-.068.07C.396 11.048-.497 9.081-.497 7c0-4.212 3.315-7.5 7.558-7.5 4.227 0 7.46 3.27 7.46 7.5 0 2.1-.79 3.89-2.295 5.323l-.031-.033z"/>
        <ellipse cx="7" cy="7" rx="7.5" ry="7.442"/>
    </g>
</svg>
