<svg xmlns="http://www.w3.org/2000/svg" xmlns:xlink="http://www.w3.org/1999/xlink" width="60" height="60" viewBox="0 0 60 60">
    <defs>
        <path id="a" d="M12 9h36.97a4 4 0 0 1 3.86 5.052l-6.818 25A4 4 0 0 1 42.152 42H16.547a4 4 0 0 1-3.935-3.284l-4.546-25A4 4 0 0 1 12.001 9z"/>
        <rect id="b" width="17" height="6" y="7" rx="3"/>
    </defs>
    <g fill="none" fill-rule="evenodd" transform="translate(2 3)">
        <use fill="#FFF" xlink:href="#a"/>
        <path stroke="#465E75" stroke-width="2" d="M12 10a3 3 0 0 0-2.95 3.537l4.545 25A3 3 0 0 0 16.546 41h25.607a3 3 0 0 0 2.894-2.21l6.818-25A3 3 0 0 0 48.971 10H12z"/>
        <circle cx="17.5" cy="46.5" r="2.5" fill="#FFF" stroke="#465E75" stroke-width="2"/>
        <circle cx="39.5" cy="46.5" r="2.5" fill="#FFF" stroke="#465E75" stroke-width="2"/>
        <path fill="#F6C776" d="M13.289 12.462h34.63a1 1 0 0 1 .965 1.263l-6.566 24.076a1 1 0 0 1-.965.737H17.666a1 1 0 0 1-.984-.821L12.305 13.64a1 1 0 0 1 .984-1.179z"/>
        <use fill="#50B4E4" xlink:href="#b"/>
        <rect width="15" height="4" x="1" y="8" stroke="#465E75" stroke-width="2" rx="2"/>
        <rect width="18" height="23" x="37" y="4" fill="#6ECDB3" stroke="#465E75" stroke-width="2" rx="2"/>
        <path stroke="#465E75" stroke-linecap="round" stroke-width="2" d="M41.544 8.75h8.958M41.544 12.75h8.958M41.544 16.75h8.958M43.5 1.5h5M17.5 23.5l11-7M19.5 29.5l11-7M21.5 35.5l11-7"/>
    </g>
</svg>
