<svg xmlns="http://www.w3.org/2000/svg" xmlns:xlink="http://www.w3.org/1999/xlink" width="60" height="60" viewBox="0 0 60 60">
    <defs>
        <path id="a" d="M16.57 38h10.984l1.57 7.031H15z"/>
        <path id="b" d="M0 .374h44.912v39.155H0z"/>
        <path id="c" d="M0 33h45v6.768H0z"/>
        <path id="d" d="M25.644 29.495l.758 3.251-5.707 2.077-1.522-3.003a14.177 14.177 0 0 1-2.875-.016l-1.53 3.02-5.707-2.078.78-3.346a14.187 14.187 0 0 1-2.148-1.826L4.521 28.93l-3.037-5.26 2.772-2.078a14.21 14.21 0 0 1-.492-2.766L.455 17.822l1.055-5.981 3.387.185c.387-.889.862-1.73 1.413-2.513L4.473 6.7l4.653-3.904 2.38 2.229a13.939 13.939 0 0 1 2.803-1.054l.386-3.206h6.073l.382 3.164c1 .244 1.96.597 2.864 1.043l2.324-2.176 4.652 3.904-1.76 2.696a14.184 14.184 0 0 1 1.494 2.622l3.23-.176 1.054 5.981-3.144.953a14.209 14.209 0 0 1-.524 2.915l2.64 1.98-3.038 5.26-3.058-1.307c-.68.698-1.43 1.326-2.24 1.872zm-7.72-6.846c2.769 0 5.014-2.259 5.014-5.045 0-2.787-2.245-5.045-5.014-5.045-2.77 0-5.015 2.258-5.015 5.045 0 2.786 2.245 5.045 5.015 5.045z"/>
    </defs>
    <g fill="none" fill-rule="evenodd">
        <g transform="translate(3 7)">
            <use fill="#FFF" xlink:href="#a"/>
            <path stroke="#465E75" stroke-width="2" d="M17.37 39l-1.122 5.031h11.627L26.752 39h-9.381z"/>
        </g>
        <path stroke="#465E75" stroke-linecap="square" stroke-width="2" d="M14.392 51.781h21.185"/>
        <g transform="translate(3 7)">
            <use fill="#FFF" xlink:href="#b"/>
            <path stroke="#465E75" stroke-width="2" d="M1 1.374h42.912v37.155H1z"/>
        </g>
        <g transform="translate(3 7)">
            <use fill="#FFF" xlink:href="#c"/>
            <path stroke="#465E75" stroke-width="2" d="M1 34h43v4.768H1z"/>
        </g>
        <path fill="#50B4E4" d="M8 11.496h35.075V36H8z"/>
        <path stroke="#465E75" stroke-width=".783" d="M21.392 43.392h1v1h-1zM25.392 43.392h1v1h-1zM29.392 43.392h1v1h-1z"/>
        <g transform="translate(24 23)">
            <ellipse cx="17.353" cy="17.46" fill="#FFF" rx="6.074" ry="6.111"/>
            <use fill="#EE7E6F" xlink:href="#d"/>
            <path stroke="#465E75" stroke-width="2" d="M30.52 27.661l2.15-3.724-2.483-1.862.193-.664c.255-.878.418-1.785.487-2.71l.05-.684 2.953-.895-.747-4.234-3.039.166-.277-.637c-.375-.86-.84-1.677-1.388-2.437l-.401-.557 1.65-2.528-3.294-2.764-2.182 2.044-.62-.307a12.934 12.934 0 0 0-2.66-.969l-.672-.164-.358-2.971h-4.3l-.362 3.004-.662.17c-.902.232-1.773.56-2.602.979l-.624.314-2.243-2.1-3.294 2.764 1.723 2.64-.39.555a13.181 13.181 0 0 0-1.314 2.335l-.277.638-3.196-.175-.747 4.234 3.114.945.053.681c.068.876.222 1.736.458 2.57l.186.661-2.611 1.958 2.15 3.724 2.991-1.277.479.496c.608.631 1.277 1.2 1.996 1.698l.56.387-.734 3.145 4.041 1.47 1.441-2.844.687.074a13.164 13.164 0 0 0 2.672.014l.68-.065 1.43 2.821 4.04-1.47-.713-3.059.571-.385c.751-.506 1.45-1.09 2.082-1.74l.479-.492 2.874 1.227zM17.924 23.65c-3.323 0-6.015-2.708-6.015-6.045 0-3.338 2.692-6.045 6.015-6.045 3.322 0 6.014 2.707 6.014 6.045 0 3.337-2.692 6.045-6.014 6.045z"/>
            <ellipse cx="17.726" cy="17.781" stroke="#465E75" stroke-dasharray="2.616781931297452,4.361303133123061" stroke-width="1.745" rx="9.972" ry="10.034"/>
        </g>
    </g>
</svg>
