<svg xmlns="http://www.w3.org/2000/svg" xmlns:xlink="http://www.w3.org/1999/xlink" width="60" height="60" viewBox="0 0 60 60">
    <defs>
        <path id="a" d="M10.827 22.364H9.24a8.812 8.812 0 0 0-8.812 8.812v11.117h32.717V31.176a8.812 8.812 0 0 0-8.812-8.812h-1.69a7.947 7.947 0 0 1-5.908 2.62 7.947 7.947 0 0 1-5.907-2.62z"/>
        <path id="b" d="M33 2h15a5 5 0 0 1 5 5v5a5 5 0 0 1-5 5H28V7a5 5 0 0 1 5-5z"/>
    </defs>
    <g fill="none" fill-rule="evenodd" transform="translate(4 7)">
        <path fill="#FFF" stroke="#465E75" stroke-width="2" d="M16.793 21.774c4.055 0 7.172-4.638 7.172-8.768 0-7.083-3.187-6.23-4.78-8.223-1.196.797-2.415 2.328-6.774 1.992-3.188 0-2.79 3.997-2.79 6.23 0 3.612 3.118 8.769 7.172 8.769z"/>
        <use fill="#FFF" xlink:href="#a"/>
        <path stroke="#465E75" stroke-width="2" d="M10.4 23.364H9.238a7.812 7.812 0 0 0-7.812 7.812v10.117h30.717V31.176a7.812 7.812 0 0 0-7.812-7.812H23.07a8.942 8.942 0 0 1-6.335 2.62 8.942 8.942 0 0 1-6.335-2.62z"/>
        <path fill="#F6C776" d="M9.97 27.15h-.4a4.807 4.807 0 0 0-4.807 4.806v6.94h24.045v-6.94a4.807 4.807 0 0 0-4.807-4.806h-.474c-1.92 1.427-4.258 2.264-6.78 2.264-2.52 0-4.857-.837-6.778-2.264z"/>
        <path stroke="#465E75" stroke-width="2" d="M9.622 12.754c-.532-1.329-1.063-2.126-1.594-2.392V5.58C7.89 1.86 9.749 0 13.606 0h7.172c2.125.266 2.656 1.196 1.594 2.79 1.992.797 2.789 1.594 2.789 3.188v4.384c-.797 1.063-1.196 1.86-1.196 2.392"/>
        <path fill="#465E75" fill-rule="nonzero" d="M40.816 47.046h-1.454c-.19 0-.347.143-.347.318 0 .922-.823 1.674-1.833 1.674s-1.835-.752-1.835-1.674c0-.175-.156-.318-.348-.318h-1.451c-.192 0-.348.143-.348.318 0 1.97 1.825 3.636 3.984 3.636s3.982-1.666 3.982-3.636c-.002-.177-.156-.318-.35-.318zM44.13 34.21a.35.35 0 0 0 .322.2.431.431 0 0 0 .067-.006c.164-.03.281-.162.281-.313-.01-1.506-.537-2.995-1.452-4.088-.926-1.11-2.391-1.93-3.919-2.196a.352.352 0 0 0-.383.182.3.3 0 0 0 .104.382c2.223 1.566 4.038 3.695 4.98 5.839z"/>
        <path fill="#FFF" fill-rule="nonzero" stroke="#465E75" stroke-width="2" d="M52 45.219a.885.885 0 0 0-.083-.37c-.319-2.126-1.618-4.028-3.58-5.245v-5.671c0-4.278-2.943-8.118-7.346-9.618C40.81 22.468 39.066 21 36.999 21s-3.81 1.467-3.994 3.313c-4.401 1.502-7.344 5.342-7.344 9.62v5.671c-1.962 1.219-3.26 3.117-3.578 5.244a.894.894 0 0 0-.063.547c-.014.162-.02.325-.02.488 0 .174.158.317.35.317h29.3c.193 0 .35-.143.35-.317 0-.165-.008-.325-.02-.486a.943.943 0 0 0 .02-.178z"/>
        <path fill="#EE7E6F" d="M39.012 26.223a9.01 9.01 0 0 1 1.34.392c3.214 1.215 5.371 4.15 5.371 7.302v6.281c0 .114.073.219.184.272 1.479.667 2.568 1.838 3.042 3.25H25.046c.474-1.412 1.564-2.583 3.043-3.25a.303.303 0 0 0 .186-.272v-6.281c0-3.626 2.822-6.862 6.71-7.694.15-.032.258-.154.258-.293v-.856c0-.864.805-1.592 1.758-1.592.951 0 1.756.73 1.756 1.592v.854c-.002.14.105.261.255.295z"/>
        <g>
            <use fill="#50B4E4" xlink:href="#b"/>
            <path stroke="#465E75" stroke-width="2" d="M29 16h19a4 4 0 0 0 4-4V7a4 4 0 0 0-4-4H33a4 4 0 0 0-4 4v9z"/>
        </g>
        <circle cx="36.5" cy="9.5" r="1.5" fill="#465E75"/>
        <circle cx="41.5" cy="9.5" r="1.5" fill="#465E75"/>
        <circle cx="46.5" cy="9.5" r="1.5" fill="#465E75"/>
    </g>
</svg>
