<svg xmlns="http://www.w3.org/2000/svg" xmlns:xlink="http://www.w3.org/1999/xlink" width="80" height="80" viewBox="0 0 80 80">
    <defs>
        <path id="a" d="M13.587 28.057h-2.052c-6.075 0-11 4.925-11 11v14.001h41.058V39.057c0-6.075-4.925-11-11-11h-2.18A9.974 9.974 0 0 1 21 31.345a9.974 9.974 0 0 1-7.413-3.288z"/>
        <path id="b" d="M29.534 33.8l.86 3.702-6.577 2.394-1.749-3.445a16.442 16.442 0 0 1-3.254-.018l-1.758 3.463-6.578-2.394.886-3.81a16.325 16.325 0 0 1-2.463-2.072L5.3 33.156l-3.5-6.062 3.113-2.339a16.186 16.186 0 0 1-.574-3.19l-3.713-1.13 1.216-6.893 3.815.206c.449-1.02.999-1.984 1.638-2.88L5.22 7.687l5.362-4.5 2.721 2.546c1.008-.502 2.075-.901 3.187-1.186l.445-3.672h7l.44 3.624c1.137.276 2.227.672 3.257 1.174l2.657-2.486 5.362 4.5-1.985 3.045c.679.932 1.26 1.939 1.731 3.006l3.634-.196 1.216 6.894-3.523 1.07a16.185 16.185 0 0 1-.612 3.364l2.961 2.224-3.5 6.062-3.471-1.48c-.78.792-1.64 1.505-2.569 2.124zm-8.876-7.857a5.779 5.779 0 1 0 0-11.558 5.779 5.779 0 0 0 0 11.558z"/>
    </defs>
    <g fill="none" fill-rule="evenodd">
        <path fill="#FFF" stroke="#465E75" stroke-width="2" d="M27.074 36.316c5.088 0 9-5.818 9-11 0-8.886-4-7.816-6-10.316-1.5 1-3.03 2.92-8.5 2.5-4 0-3.5 5.015-3.5 7.816 0 4.53 3.912 11 9 11z"/>
        <g transform="translate(6 9)">
            <use fill="#FFF" xlink:href="#a"/>
            <path stroke="#465E75" stroke-width="2" d="M13.156 29.057h-1.62c-5.523 0-10 4.477-10 10v13.001h39.057V39.057c0-5.523-4.477-10-10-10h-1.75A10.969 10.969 0 0 1 21 32.345a10.969 10.969 0 0 1-7.844-3.288z"/>
        </g>
        <path fill="#EE7E6F" d="M18.51 43.06h-.533a6 6 0 0 0-6 6v8.736h30.174V49.06a6 6 0 0 0-6-6h-.627c-2.41 1.79-5.343 2.841-8.507 2.841-3.164 0-6.097-1.05-8.506-2.84z"/>
        <path stroke="#465E75" stroke-width="2" d="M18.074 25c-.666-1.667-1.333-2.667-2-3v-6c-.173-4.667 2.16-7 7-7h9c2.667.333 3.334 1.5 2 3.5 2.5 1 3.5 2 3.5 4V22c-1 1.333-1.5 2.333-1.5 3"/>
        <g transform="translate(32.28 31.443)">
            <circle cx="20" cy="20" r="7" fill="#FFF"/>
            <use fill="#F6C776" xlink:href="#b"/>
            <path stroke="#465E75" stroke-width="2" d="M35.151 31.889l2.614-4.528-2.807-2.108.196-.665c.3-1.023.493-2.079.574-3.156l.05-.683 3.331-1.012-.907-5.149-3.44.186-.279-.633a15.222 15.222 0 0 0-1.624-2.82l-.406-.557 1.877-2.88-4.004-3.361-2.513 2.35-.618-.301A15.123 15.123 0 0 0 24.14 5.47l-.674-.164-.416-3.432h-5.227l-.421 3.471-.663.17a15.126 15.126 0 0 0-2.99 1.112l-.62.31-2.582-2.415-4.004 3.36 1.96 3.01-.395.555a15.218 15.218 0 0 0-1.536 2.702l-.279.634-3.622-.196-.907 5.149 3.518 1.07.053.68c.08 1.02.26 2.021.539 2.993l.189.662-2.955 2.22 2.614 4.527 3.417-1.457.478.49c.705.723 1.48 1.374 2.312 1.944l.564.386-.84 3.613 4.912 1.788 1.668-3.286.685.072a15.427 15.427 0 0 0 3.057.016l.677-.063 1.656 3.261 4.912-1.788-.817-3.513.576-.384c.87-.58 1.678-1.248 2.411-1.994l.478-.485 3.283 1.4zm-21.66-27.35l.497.463-1.13-.165c.21-.104.42-.203.634-.299zm7.167 22.404a6.779 6.779 0 1 1 0-13.558 6.779 6.779 0 0 1 0 13.558z"/>
            <circle cx="20.43" cy="20.368" r="11.493" stroke="#465E75" stroke-dasharray="3,5" stroke-width="2"/>
        </g>
    </g>
</svg>
