<svg xmlns="http://www.w3.org/2000/svg" width="80" height="80" viewBox="0 0 80 80">
    <g fill="none" fill-rule="evenodd">
        <g stroke-dasharray="3,5" stroke-linecap="round" stroke-width="2">
            <path stroke="#465E75" d="M41 47.563V72"/>
            <path stroke="#485F74" d="M41.556 47H67M41 72c14.36 0 26-10.974 26-25"/>
        </g>
        <path fill="#FFF" stroke="#465E75" stroke-width="2" d="M39.761 12.566c-15.429.122-28.034 12.666-28.034 28.122 0 .098 0 .195.002.292h28.26l-.228-28.414z"/>
        <path fill="#6ECDB3" stroke="#465E75" stroke-width="2" d="M8 46v.112c0 15.517 12.611 28.097 28.129 28.097.097 0 .194 0 .291-.002V46H8z"/>
        <path stroke="#465E75" stroke-linecap="square" stroke-width="2" d="M39.74 40.826l-19.131-20"/>
        <path fill="#FFF" stroke="#465E75" stroke-width="2" d="M64.048 12.122C58.93 6.541 51.588 3.032 43.426 3v28.415h.296l20.326-19.293zM60.488 22.21a28.02 28.02 0 0 1 7.247 18.845H40.16L60.488 22.21z"/>
        <path fill="#F67F70" d="M25.826 21.696c3.188-2.609 6.812-4.058 10.87-4.348V33l-10.87-11.304zM16.247 37.979c.339-4.106 1.813-7.72 4.423-10.84l11.26 10.873-15.683-.033zM59.7 27.565c2.609 3.189 4.058 6.812 4.348 10.87H48.396L59.7 27.565z"/>
        <path fill="#50B4E4" d="M47.733 7.639c4.099.41 7.685 1.947 10.76 4.611L47.425 23.318l.308-15.68z"/>
    </g>
</svg>
