<svg xmlns="http://www.w3.org/2000/svg" xmlns:xlink="http://www.w3.org/1999/xlink" width="80" height="80" viewBox="0 0 80 80">
    <defs>
        <path id="a" d="M7 7h53v46H7z"/>
        <rect id="b" width="66" height="8.099" x=".5" y=".851" rx="4.049"/>
    </defs>
    <g fill="none" fill-rule="evenodd" transform="translate(6 10)">
        <path stroke="#465E75" stroke-linecap="square" stroke-width="2" d="M33 51.5v7"/>
        <circle cx="33.5" cy="60" r="2.556" fill="#FFF" stroke="#465E75" stroke-width="2"/>
        <use fill="#6ECDB3" xlink:href="#a"/>
        <path stroke="#465E75" stroke-width="2" d="M8 8h51v44H8z"/>
        <path fill="#FFF" d="M13 12h41v35H13z"/>
        <path fill="#50B3E3" d="M17 31h6v11h-6z"/>
        <path fill="#EE7E6F" d="M26.499 25.5h6V42h-6z"/>
        <path fill="#50B3E3" d="M35.998 27.913h6V42h-6z"/>
        <path fill="#EE7E6F" d="M45.497 17.232h6V42h-6z"/>
        <use fill="#FFF" xlink:href="#b"/>
        <rect width="64" height="6.099" x="1.5" y="1.851" stroke="#465E75" stroke-width="2" rx="3.049"/>
        <circle cx="25.5" cy="5" r="1" fill="#465E75"/>
        <circle cx="30.999" cy="5" r="1" fill="#465E75"/>
        <circle cx="36.5" cy="5" r="1" fill="#465E75"/>
        <circle cx="41.5" cy="5" r="1" fill="#465E75"/>
        <circle cx="55" cy="46" r="13" fill="#F6C776" stroke="#465E75" stroke-width="2"/>
        <text fill="#465E75" font-family="PingFangSC-Medium, PingFang SC" font-size="18" font-weight="400">
            <tspan x="46" y="52">￥</tspan>
        </text>
    </g>
</svg>
