<svg xmlns="http://www.w3.org/2000/svg" width="24" height="24" viewBox="0 0 24 24">
    <g fill="#FFF" fill-rule="nonzero">
        <path d="M10.592 2C8 1.967 5.732 4.18 5.687 6.916c-.022 1.542.66 2.95 1.843 3.944l.347.213-.358.133c-3.24 1.22-5.452 4.28-5.497 7.777v.055a2.356 2.356 0 0 0 2.356 2.356h.002l6.379.078c.212 0 .559-.076.57-.499.011-.492-.347-.553-.547-.553l-6.38-.08c-.614 0-1.314-.699-1.314-1.313v-.034c.045-3.71 3.054-6.91 6.614-7.06l.979.01c.838-.054 2.033-.256 2.67-.804l.28-.212c1.206-.96 1.921-2.357 1.943-3.899.034-2.714-2.178-4.994-4.982-5.028zm.03 8.887c-2.14-.024-3.892-1.823-3.856-3.963.023-2.14 1.822-3.88 3.962-3.857 2.14.024 3.893 1.823 3.857 3.963-.035 2.14-1.822 3.893-3.963 3.857z"/>
        <path d="M21.783 15.912c-.065-.35-.34-.633-.62-.636h-.07a1.103 1.103 0 0 1-1.101-1.132c.001-.137.074-.347.075-.417a.863.863 0 0 0-.267-.98l-1.246-.714-.35-.005c-.209-.003-.489.064-.631.271-.141.138-.564.482-.843.478-.28-.004-.694-.358-.901-.5a.887.887 0 0 0-.625-.287c-.138-.002-.21-.003-.28.066l-1.335.68a.863.863 0 0 0-.291.974c.04.13.064.279.064.434v-.015a1.102 1.102 0 0 1-1.132 1.102h-.068c-.28-.003-.562.272-.636.62 0 .07-.147.557-.153 1.045-.006.419.057.978.126 1.048.065.35.34.633.62.637h.07a1.102 1.102 0 0 1 1.101 1.132c-.001.137-.074.347-.075.416a.863.863 0 0 0 .267.98l1.247.715c.14-.068.21-.067.35-.065.209.002.489-.064.631-.272.141-.138.565-.55.914-.546.28.003.763.36.9.57a.885.885 0 0 0 .625.287c.138.002.209.003.35-.065l1.265-.682a.863.863 0 0 0 .291-.973 1.48 1.48 0 0 1-.064-.434v.014a1.102 1.102 0 0 1 1.132-1.101h.068c.28.003.562-.272.636-.62 0 0 .147-.557.153-1.045-.135-.35-.198-.91-.197-.98zm-1 1.732c-1.048.126-1.826.953-1.84 2.07-.003.21.063.49.13.63l-.912.476-.344-.353c-.415-.285-.763-.429-1.181-.434-.35-.005-.77.13-1.192.403-.141.138-.282.206-.353.345l-.83-.5c.071-.138.145-.417.147-.626a2.107 2.107 0 0 0-1.787-2.116c.002-.139-.064-.42-.06-.7.002-.209.076-.487.078-.696 1.049-.126 1.827-.953 1.842-2.07a1.67 1.67 0 0 0-.132-.63l.913-.476c.069.07.206.212.345.283.415.285.762.429 1.111.433.35.005.7-.13 1.122-.404.141-.138.282-.205.352-.275l.9.5a1.67 1.67 0 0 0-.147.626 2.107 2.107 0 0 0 1.787 2.117c-.002.139.064.42.06.699.068.21-.005.489-.008.698z"/>
        <path d="M18.564 16.638c-.13-.838-.75-1.474-1.515-1.625-1.322-.296-2.523.875-2.262 2.274.13.77.75 1.406 1.515 1.555 1.322.297 2.523-.874 2.262-2.204zm-1.9 1.162a.924.924 0 0 1-.895-.92.923.923 0 0 1 .918-.894c.489.006.902.43.896.92-.007.49-.43.9-.919.894z"/>
    </g>
</svg>
