<svg xmlns="http://www.w3.org/2000/svg" width="24" height="24" viewBox="0 0 24 24">
    <g fill="#FFF" fill-rule="nonzero">
        <path d="M12.015 12.067c-.589 0-1.188-.12-1.732-.345a4.567 4.567 0 0 1-1.468-.98 4.57 4.57 0 0 1-.982-1.469 4.567 4.567 0 0 1-.344-1.732c0-.589.12-1.188.344-1.732a4.568 4.568 0 0 1 .982-1.468 4.566 4.566 0 0 1 1.468-.981 4.567 4.567 0 0 1 1.732-.345c.589 0 1.188.12 1.732.345a4.567 4.567 0 0 1 1.468.98c.416.417.756.925.981 1.47.226.543.345 1.142.345 1.731 0 .59-.12 1.188-.345 1.732a4.567 4.567 0 0 1-.98 1.468 4.566 4.566 0 0 1-1.47.981 4.568 4.568 0 0 1-1.731.345zm0-7.74c-.418 0-.843.085-1.23.245-.386.16-.747.401-1.042.697a3.242 3.242 0 0 0-.697 1.042c-.16.387-.244.812-.244 1.23 0 .418.084.843.244 1.23.16.386.401.746.697 1.042.295.296.656.537 1.042.697.387.16.812.244 1.23.244.418 0 .843-.084 1.23-.244.386-.16.746-.401 1.042-.697.296-.295.537-.656.697-1.042.16-.387.244-.812.244-1.23 0-.418-.084-.843-.245-1.23-.16-.386-.4-.746-.696-1.042a3.243 3.243 0 0 0-1.042-.697 3.243 3.243 0 0 0-1.23-.244zM12.015 20.758c-2.99 0-5.047-.355-6.286-1.086-1.16-.684-1.363-1.548-1.414-2.138-.112-1.27.59-2.908 1.341-3.87.76-.973 1.797-1.509 2.92-1.509.69 0 1.138.23 1.533.434.462.238.899.462 1.906.462 1.035 0 1.483-.235 1.917-.462.387-.203.826-.434 1.52-.434 1.003 0 1.85.381 2.663 1.2 1.094 1.099 1.658 2.963 1.573 4.131-.03.41-.101 1.37-1.306 2.129-1.222.77-3.305 1.143-6.367 1.143zm-3.44-7.29c-.91 0-1.527.546-1.884 1.004-.658.842-1.137 2.164-1.069 2.947.03.34.117.735.774 1.123.7.412 2.242.904 5.619.904 3.448 0 4.985-.512 5.667-.942.645-.405.675-.815.697-1.114.054-.746-.33-2.24-1.194-3.11-.567-.57-1.085-.812-1.732-.812-.372 0-.575.107-.912.283-.52.273-1.167.613-2.526.613-1.325 0-1.98-.337-2.506-.608-.338-.173-.561-.288-.933-.288zM21.287 16.588a.656.656 0 0 1-.65-.753c.288-1.928-.908-4.375-3.082-4.804a.656.656 0 0 1-.407-1.026c.775-1.08.98-2.106.608-3.049a3.046 3.046 0 0 0-.83-1.165l.002.003.8-1.041c.08.062.8.634 1.223 1.655.343.83.537 2.085-.263 3.602.958.399 1.79 1.121 2.396 2.095.737 1.183 1.047 2.613.852 3.923a.657.657 0 0 1-.649.56zM2.712 16.588c-.32 0-.6-.234-.649-.56-.195-1.31.116-2.74.852-3.923.606-.974 1.438-1.696 2.397-2.095-.801-1.517-.607-2.772-.264-3.602a4.263 4.263 0 0 1 1.223-1.655l.8 1.04.003-.002a3.047 3.047 0 0 0-.831 1.165c-.371.943-.167 1.969.608 3.05a.656.656 0 0 1-.407 1.025c-2.174.429-3.37 2.876-3.082 4.804a.656.656 0 0 1-.65.753z"/>
        <path d="M6.014 5.28a.662.662 0 1 0 1.324 0 .662.662 0 0 0-1.324 0zM16.647 5.28a.662.662 0 1 0 1.324 0 .662.662 0 0 0-1.324 0z"/>
    </g>
</svg>
