<svg xmlns="http://www.w3.org/2000/svg" width="95" height="80" viewBox="0 0 95 80">
    <g fill="none" fill-rule="evenodd">
        <path fill="#EEE" d="M49.334 69.292c9.577 0 20.05-1.077 26.776-2.232 8.17-1.404 14.092-3.596 14.092-5.914 0-4.227-18.672-7.48-40.868-8.117-9.202-.264-19.656 1.33-26.07 2.551C14.205 57.304 6 60.76 6 63.233c0 2.624 8.225 2.448 18.32 3.827 6.17.843 16.969 2.232 25.014 2.232z"/>
        <path fill="#F3FFFD" stroke="#BEE4DD" stroke-width="2" d="M22.385 60.74l14.883-39.413A2.051 2.051 0 0 1 39.188 20h45.339a2.051 2.051 0 0 1 1.97 2.622L75.462 60.74H22.385z"/>
        <path fill="#D4F3ED" stroke="#BEE4DD" stroke-width="2" d="M33.667 30.64l3.596-9.327A2.051 2.051 0 0 1 39.177 20h45.35a2.051 2.051 0 0 1 1.971 2.621L84.18 30.64H33.667z"/>
        <path fill="#FFF" stroke="#BEE4DD" stroke-width="2" d="M6.18 33.42L20.871 61h53.336l-7.964-20.47a6.154 6.154 0 0 0-5.735-3.922H35.487l-.526-1.016a8.205 8.205 0 0 0-7.287-4.434H7.537A1.538 1.538 0 0 0 6.18 33.42z"/>
        <path fill="#BEE4DD" d="M19.084 49.533l.704 1.322c.178.335.526.544.905.544h41.891a1.026 1.026 0 0 0 .934-1.451l-.603-1.323a1.026 1.026 0 0 0-.933-.6H19.99a1.026 1.026 0 0 0-.906 1.508zM21.862 53.969l.421.79a.513.513 0 0 0 .453.273h22.642a.513.513 0 0 0 .466-.726l-.36-.79a.513.513 0 0 0-.467-.3H22.315a.513.513 0 0 0-.453.753z"/>
        <path stroke="#BEE4DD" stroke-linecap="round" stroke-width="2" d="M12 23l-3-1M17 21l-4.5-5.5M20.5 18.5L21 15"/>
    </g>
</svg>
