<svg xmlns="http://www.w3.org/2000/svg" width="24" height="24" viewBox="0 0 24 24">
    <g fill="#FFF" fill-rule="nonzero">
        <path d="M12.984 22h-1.968a1.424 1.424 0 0 1-1.322-.888 18.163 18.163 0 0 1-.498-1.389 8.243 8.243 0 0 1-.674-.28c-.57.297-1.03.503-1.334.63a1.424 1.424 0 0 1-1.562-.306l-1.394-1.392a1.424 1.424 0 0 1-.307-1.562c.127-.303.334-.764.63-1.335a8.564 8.564 0 0 1-.278-.674 18.199 18.199 0 0 1-1.389-.498A1.424 1.424 0 0 1 2 12.984v-1.968c-.001-.58.35-1.104.888-1.322.305-.125.776-.304 1.39-.498.082-.229.175-.453.278-.674a18.238 18.238 0 0 1-.63-1.334 1.424 1.424 0 0 1 .307-1.562l1.392-1.394a1.424 1.424 0 0 1 1.562-.307c.303.127.763.334 1.334.63.221-.102.446-.195.675-.278a18.06 18.06 0 0 1 .498-1.39C9.912 2.35 10.436 2 11.016 2h1.968c.58-.001 1.104.35 1.322.888.125.305.304.776.498 1.389.228.083.453.176.674.28.57-.297 1.03-.503 1.334-.63a1.424 1.424 0 0 1 1.562.306l1.394 1.392c.411.41.532 1.028.307 1.562-.127.303-.334.763-.63 1.334.102.221.195.446.278.675.613.194 1.085.373 1.389.498.538.218.89.741.888 1.322v1.968c.001.58-.35 1.104-.888 1.322-.305.125-.776.304-1.389.498a8.243 8.243 0 0 1-.28.674c.297.57.503 1.03.63 1.334a1.424 1.424 0 0 1-.306 1.562l-1.392 1.394a1.424 1.424 0 0 1-1.562.307 18.194 18.194 0 0 1-1.334-.63 8.62 8.62 0 0 1-.675.278 18.199 18.199 0 0 1-.498 1.389c-.218.538-.741.89-1.322.888zM8.51 17.926c.116 0 .23.028.333.082.365.193.746.35 1.14.473.227.071.405.25.472.479a17.3 17.3 0 0 0 .56 1.61h1.968c.135-.33.342-.878.56-1.61a.714.714 0 0 1 .473-.48 6.76 6.76 0 0 0 1.14-.472.714.714 0 0 1 .673.004 17.37 17.37 0 0 0 1.535.744l1.392-1.391c-.139-.33-.38-.864-.744-1.536a.714.714 0 0 1-.004-.673 6.76 6.76 0 0 0 .472-1.14.714.714 0 0 1 .48-.473 17.3 17.3 0 0 0 1.61-.56v-1.968a17.32 17.32 0 0 0-1.611-.56.714.714 0 0 1-.48-.472 6.76 6.76 0 0 0-.472-1.14.714.714 0 0 1 .004-.673c.364-.672.605-1.206.744-1.535l-1.39-1.392c-.331.139-.865.38-1.537.744a.714.714 0 0 1-.673.004 6.76 6.76 0 0 0-1.14-.472.714.714 0 0 1-.472-.48 17.257 17.257 0 0 0-.56-1.61h-1.968c-.134.33-.34.875-.558 1.602a.714.714 0 0 1-.475.488 6.76 6.76 0 0 0-1.14.473.714.714 0 0 1-.674-.004 17.288 17.288 0 0 0-1.535-.744l-1.39 1.39c.138.331.379.865.743 1.537.114.21.115.462.004.673a6.76 6.76 0 0 0-.472 1.14.714.714 0 0 1-.479.472c-.732.218-1.28.425-1.611.56v1.968c.329.134.87.34 1.596.555a.716.716 0 0 1 .5.496c.12.382.274.752.46 1.107.121.22.119.488-.007.705-.359.663-.597 1.19-.734 1.518l1.391 1.392c.33-.138.864-.38 1.536-.744a.714.714 0 0 1 .34-.087z"/>
        <path d="M12.984 22h-1.968a1.424 1.424 0 0 1-1.322-.888 18.163 18.163 0 0 1-.498-1.389 8.243 8.243 0 0 1-.674-.28c-.57.297-1.03.503-1.334.63a1.424 1.424 0 0 1-1.562-.306l-1.394-1.392a1.424 1.424 0 0 1-.307-1.562c.127-.303.334-.764.63-1.335a8.564 8.564 0 0 1-.278-.674 18.199 18.199 0 0 1-1.389-.498A1.424 1.424 0 0 1 2 12.984v-1.968c-.001-.58.35-1.104.888-1.322.305-.125.776-.304 1.39-.498.082-.229.175-.453.278-.674a18.238 18.238 0 0 1-.63-1.334 1.424 1.424 0 0 1 .307-1.562l1.392-1.394a1.424 1.424 0 0 1 1.562-.307c.303.127.763.334 1.334.63.221-.102.446-.195.675-.278a18.06 18.06 0 0 1 .498-1.39C9.912 2.35 10.436 2 11.016 2h1.968c.58-.001 1.104.35 1.322.888.125.305.304.776.498 1.389.228.083.453.176.674.28.57-.297 1.03-.503 1.334-.63a1.424 1.424 0 0 1 1.562.306l1.394 1.392c.411.41.532 1.028.307 1.562-.127.303-.334.763-.63 1.334.102.221.195.446.278.675.613.194 1.085.373 1.389.498.538.218.89.741.888 1.322v1.968c.001.58-.35 1.104-.888 1.322-.305.125-.776.304-1.389.498a8.243 8.243 0 0 1-.28.674c.297.57.503 1.03.63 1.334a1.424 1.424 0 0 1-.306 1.562l-1.392 1.394a1.424 1.424 0 0 1-1.562.307 18.194 18.194 0 0 1-1.334-.63 8.62 8.62 0 0 1-.675.278 18.199 18.199 0 0 1-.498 1.389c-.218.538-.741.89-1.322.888zM8.51 17.926c.116 0 .23.028.333.082.365.193.746.35 1.14.473.227.071.405.25.472.479a17.3 17.3 0 0 0 .56 1.61h1.968c.135-.33.342-.878.56-1.61a.714.714 0 0 1 .473-.48 6.76 6.76 0 0 0 1.14-.472.714.714 0 0 1 .673.004 17.37 17.37 0 0 0 1.535.744l1.392-1.391c-.139-.33-.38-.864-.744-1.536a.714.714 0 0 1-.004-.673 6.76 6.76 0 0 0 .472-1.14.714.714 0 0 1 .48-.473 17.3 17.3 0 0 0 1.61-.56v-1.968a17.32 17.32 0 0 0-1.611-.56.714.714 0 0 1-.48-.472 6.76 6.76 0 0 0-.472-1.14.714.714 0 0 1 .004-.673c.364-.672.605-1.206.744-1.535l-1.39-1.392c-.331.139-.865.38-1.537.744a.714.714 0 0 1-.673.004 6.76 6.76 0 0 0-1.14-.472.714.714 0 0 1-.472-.48 17.257 17.257 0 0 0-.56-1.61h-1.968c-.134.33-.34.875-.558 1.602a.714.714 0 0 1-.475.488 6.76 6.76 0 0 0-1.14.473.714.714 0 0 1-.674-.004 17.288 17.288 0 0 0-1.535-.744l-1.39 1.39c.138.331.379.865.743 1.537.114.21.115.462.004.673a6.76 6.76 0 0 0-.472 1.14.714.714 0 0 1-.479.472c-.732.218-1.28.425-1.611.56v1.968c.329.134.87.34 1.596.555a.716.716 0 0 1 .5.496c.12.382.274.752.46 1.107.121.22.119.488-.007.705-.359.663-.597 1.19-.734 1.518l1.391 1.392c.33-.138.864-.38 1.536-.744a.714.714 0 0 1 .34-.087z"/>
        <path d="M12 16.286A4.29 4.29 0 0 1 7.714 12 4.29 4.29 0 0 1 12 7.714 4.29 4.29 0 0 1 16.286 12 4.29 4.29 0 0 1 12 16.286zm0-7.143a2.857 2.857 0 1 0 0 5.714 2.857 2.857 0 0 0 0-5.714z"/>
    </g>
</svg>
