<svg xmlns="http://www.w3.org/2000/svg" width="16" height="16" viewBox="0 0 16 16">
    <g fill="#FFF" fill-rule="nonzero">
        <path d="M10.035 13.891H9.26c-.102 0-.186.076-.186.17 0 .491-.438.893-.977.893-.539 0-.978-.402-.978-.893 0-.094-.084-.17-.186-.17H6.16c-.102 0-.186.076-.186.17 0 1.05.974 1.939 2.125 1.939s2.124-.888 2.124-1.94c-.001-.094-.084-.169-.187-.169zm1.768-6.846c.029.065.098.106.172.106a.23.23 0 0 0 .035-.003c.088-.016.15-.086.15-.167-.005-.803-.287-1.597-.774-2.18-.494-.592-1.276-1.03-2.09-1.17a.188.188 0 0 0-.205.096.16.16 0 0 0 .055.204c1.186.835 2.154 1.97 2.657 3.114z"/>
        <path d="M16 12.917a.472.472 0 0 0-.044-.197c-.17-1.134-.863-2.149-1.91-2.798V6.898c0-2.282-1.57-4.33-3.918-5.13C10.032.783 9.102 0 8 0 6.897 0 5.967.782 5.87 1.767c-2.347.801-3.916 2.849-3.916 5.13v3.025C.906 10.572.214 11.585.044 12.72a.477.477 0 0 0-.033.292c-.008.086-.011.173-.011.26 0 .093.084.169.187.169h15.626c.103 0 .187-.076.187-.17a3.47 3.47 0 0 0-.01-.258.503.503 0 0 0 .01-.095zM9.128 2.584c.256.054.507.128.752.22 1.801.681 3.01 2.327 3.01 4.094v3.521c0 .064.041.123.103.152.83.374 1.44 1.03 1.706 1.822H1.3c.265-.791.876-1.448 1.705-1.822a.17.17 0 0 0 .104-.152V6.898c0-2.033 1.582-3.847 3.763-4.314.084-.018.144-.086.144-.164v-.48c0-.484.451-.892.985-.892s.985.409.985.892v.479c0 .079.059.146.143.165z"/>
    </g>
</svg>
