<svg xmlns="http://www.w3.org/2000/svg" width="24" height="24" viewBox="0 0 24 24">
    <g fill="none" fill-rule="evenodd" stroke="#FFF">
        <path stroke-width="1.5" d="M5 2.75c-.69 0-1.25.56-1.25 1.25v15.8c0 .69.56 1.25 1.25 1.25h14c.69 0 1.25-.56 1.25-1.25V4c0-.69-.56-1.25-1.25-1.25H5z"/>
        <path stroke-width="1.5" d="M7.35 13.55h9.3v7.5h-9.3z"/>
        <path stroke-linecap="square" d="M12 13.7v7.2"/>
        <path stroke-width="1.5" d="M4.116 8.879c.251.646.816 1.097 1.473 1.097.657 0 1.222-.45 1.473-1.097h.368c.282.539.796.9 1.384.9.587 0 1.102-.361 1.383-.9h.458c.282.539.796.9 1.383.9.588 0 1.102-.361 1.384-.9h.457c.282.539.796.9 1.384.9.588 0 1.102-.361 1.384-.9h.457c.282.539.796.9 1.384.9.587 0 1.102-.361 1.383-.9h.152v-.384a2.1 2.1 0 0 0 0-1.133V4.9a2 2 0 0 0-2-2H5.9a2 2 0 0 0-2 2v3.979h.216z"/>
    </g>
</svg>
