<svg xmlns="http://www.w3.org/2000/svg" width="24" height="24" viewBox="0 0 24 24">
    <path fill="#FFF" fill-rule="nonzero" d="M19.555 12.973a8.16 8.16 0 0 0 .87-3.657c0-4.59-3.777-8.31-8.436-8.31-4.66 0-8.435 3.72-8.435 8.31 0 1.315.318 2.554.87 3.657L1 18.817s2.171.435 4.375.89c1.468 1.634 2.93 3.266 2.93 3.266l3.148-5.372c.178.01.355.026.536.026.181 0 .358-.015.536-.026l3.148 5.372s1.462-1.632 2.93-3.267c2.204-.453 4.376-.89 4.376-.89l-3.424-5.843zM8.142 20.481s-1.055-1-2.046-1.964c-1.405-.4-2.825-.807-2.825-.807l1.99-3.397a8.44 8.44 0 0 0 4.7 3.062l-1.82 3.106zm3.847-4.368c-3.787 0-6.858-3.077-6.858-6.873 0-3.795 3.071-6.871 6.858-6.871 3.787 0 6.858 3.076 6.858 6.871 0 3.796-3.07 6.873-6.858 6.873zm5.893 2.404c-.99.963-2.045 1.964-2.045 1.964l-1.82-3.105a8.435 8.435 0 0 0 4.7-3.061l1.99 3.396-2.825.806zM11.989 4.438a4.806 4.806 0 1 0 0 9.612 4.806 4.806 0 0 0 0-9.612zm0 8.238a3.432 3.432 0 1 1 0-6.864 3.432 3.432 0 0 1 0 6.864z"/>
</svg>
