<svg xmlns="http://www.w3.org/2000/svg" width="24" height="24" viewBox="0 0 24 24">
    <g fill="#FFF" fill-rule="nonzero">
        <path d="M14.428 19.439h-.975c-.129 0-.234.096-.234.214 0 .62-.552 1.128-1.23 1.128-.677 0-1.23-.507-1.23-1.128 0-.118-.105-.214-.234-.214h-.974c-.128 0-.233.096-.233.214 0 1.327 1.224 2.449 2.673 2.449 1.448 0 2.672-1.122 2.672-2.45-.002-.118-.105-.213-.235-.213zm2.223-8.645a.235.235 0 0 0 .217.134.221.221 0 0 0 .233-.215c-.007-1.014-.36-2.016-.974-2.753-.621-.747-1.605-1.3-2.63-1.478a.236.236 0 0 0-.257.122.203.203 0 0 0 .07.257c1.492 1.055 2.71 2.489 3.341 3.933z"/>
        <path d="M21.98 18.312a.601.601 0 0 0-.055-.248c-.212-1.432-1.077-2.712-2.384-3.531v-3.819c0-2.88-1.96-5.465-4.893-6.475-.12-1.243-1.282-2.231-2.658-2.231-1.377 0-2.538.987-2.66 2.23-2.931 1.011-4.89 3.596-4.89 6.476v3.819c-1.308.82-2.172 2.098-2.384 3.53a.608.608 0 0 0-.042.368c-.009.11-.013.219-.013.328 0 .118.105.214.233.214h19.513c.128 0 .233-.096.233-.214 0-.11-.005-.219-.013-.327a.642.642 0 0 0 .013-.12zM13.4 5.27c.32.068.633.16.939.277 2.25.86 3.76 2.937 3.76 5.167v4.446c0 .08.05.154.128.192 1.035.472 1.798 1.3 2.13 2.3H3.622c.332-1 1.095-1.828 2.13-2.3a.214.214 0 0 0 .13-.192v-4.446c0-2.565 1.976-4.856 4.699-5.444a.22.22 0 0 0 .18-.208v-.605c0-.612.563-1.127 1.23-1.127.666 0 1.23.516 1.23 1.127v.604c-.002.1.073.185.178.209z"/>
    </g>
</svg>
