<svg xmlns="http://www.w3.org/2000/svg" width="24" height="24" viewBox="0 0 24 24">
    <g fill="none" fill-rule="evenodd">
        <path stroke="#FFF" stroke-width="1.5" d="M7.785 3.15l-.122.6H5c-.69 0-1.25.56-1.25 1.25v15c0 .69.56 1.25 1.25 1.25h14c.69 0 1.25-.56 1.25-1.25V5c0-.69-.56-1.25-1.25-1.25h-2.663l-.122-.6a1.75 1.75 0 0 0-1.715-1.4h-5a1.75 1.75 0 0 0-1.715 1.4z"/>
        <path fill="#FFF" d="M6 8h2v2H6zM6 12h2v2H6zM6 16h2v2H6zM10 8h7v2h-7zM10 12h7v2h-7zM10 16h7v2h-7z"/>
        <rect width="8.5" height="3.5" x="7.75" y="1.75" stroke="#FFF" stroke-width="1.5" rx="1.75"/>
    </g>
</svg>
