<svg xmlns="http://www.w3.org/2000/svg" width="215" height="24" viewBox="0 0 215 24">
    <g fill="none" fill-rule="evenodd">
        <path fill="#0F9D83" d="M-16-18h1366v60H-16z"/>
        <text fill="#FFF" font-family="PingFangSC-Semibold, PingFang SC" font-size="20" font-weight="500" transform="translate(0 -2)">
            <tspan x="51" y="21">零售后台管理系统</tspan>
        </text>
        <path fill="#FCAF50" d="M3 0h25.487a3 3 0 0 1 2.412 1.217l7.229 9.779a2 2 0 0 1-.02 2.404l-7.207 9.423A3 3 0 0 1 28.518 24H3a3 3 0 0 1-3-3V3a3 3 0 0 1 3-3z"/>
        <text fill="#FFF" font-family="HelveticaNeue-Bold, Helvetica Neue" font-size="18" font-weight="bold" transform="translate(0 -2)">
            <tspan x="7" y="20">%</tspan>
        </text>
        <path fill="#FF6464" d="M3 0v24a3 3 0 0 1-3-3V3a3 3 0 0 1 3-3z"/>
    </g>
</svg>
